<svg width="24" height="24" viewBox="0 0 24 24" fill="none" xmlns="http://www.w3.org/2000/svg">
<path fill-rule="evenodd" clip-rule="evenodd" d="M7.4951 9.51643C5.4631 11.7154 5.5061 15.2014 7.6241 17.3604C8.6581 18.4174 10.0321 19.0004 11.4961 19.0014H11.5011C12.9681 19.0014 14.3471 18.4184 15.3861 17.3604C17.5421 15.1624 17.5381 11.5874 15.3771 9.39243L12.3911 6.34143C12.0891 8.82343 11.1581 11.0014 9.5001 11.0014C8.9921 11.0014 8.1641 10.7754 7.4951 9.51643ZM11.5012 21.0015H11.4942C9.48821 20.9995 7.60621 20.2045 6.19521 18.7595C3.28121 15.7895 3.27721 10.9565 6.18621 7.99147L7.16921 6.99747C7.42321 6.74347 7.79221 6.64547 8.14121 6.73647C8.48821 6.83047 8.75821 7.10347 8.84821 7.45147C9.07821 8.34047 9.35221 8.77747 9.50321 8.94347C9.85821 8.56947 10.5002 7.05847 10.5002 4.50147C10.5002 4.35447 10.5002 4.21547 10.4922 4.07647C10.4732 3.78147 10.5862 3.49247 10.8002 3.28847C11.1972 2.91147 11.8332 2.91147 12.2142 3.30347L16.8042 7.99247C19.7242 10.9565 19.7292 15.7895 16.8142 18.7605C15.3952 20.2065 13.5092 21.0015 11.5012 21.0015Z" fill="#343C44"/>
</svg>
