<svg width="24" height="24" viewBox="0 0 24 24" fill="none" xmlns="http://www.w3.org/2000/svg">
<path fill-rule="evenodd" clip-rule="evenodd" d="M22 11.9991C22 10.3167 20.8696 8.99915 19 8.99915H15.927L15.9548 8.92342C15.9826 8.84825 16.0609 8.64178 16.137 8.44126L16.1372 8.4408C16.2044 8.26352 16.2699 8.09097 16.2971 8.01805C16.4872 7.5077 16.626 7.09651 16.7382 6.68927C16.9079 6.07378 17 5.51926 17 4.99915C17 3.52714 16.0919 2.61286 14.7483 2.22163C14.1423 2.04517 13.6148 1.99905 13 1.99915H12.5205L12.2203 2.37303C11.8811 2.79538 11.215 3.55655 10.447 4.4341L10.447 4.43415C9.03026 6.05306 7.2669 8.06805 6.57035 9.08254C6.38961 9.02886 6.19817 9.00004 6 9.00004H4C2.89543 9.00004 2 9.89547 2 11V20C2 21.1046 2.89543 22 4 22H6C6.68712 22 7.29331 21.6535 7.65337 21.1257C7.95674 21.3219 8.29522 21.4857 8.66312 21.6173C9.50544 21.9187 10.3408 22.0112 11.0344 21.9986L18 21.9991C20.7551 21.9991 22 17.9427 22 11.9991ZM9.33688 19.7342C8.45197 19.4176 8 18.9014 8 17.9991V11V10.9991C8 10.759 8.04443 10.5463 8.14171 10.3191C8.31645 9.91115 9.90193 8.10229 11.4047 6.38783L11.4047 6.38782C12.1802 5.50297 12.9338 4.64327 13.46 4.01428C13.7114 4.03314 13.9484 4.07178 14.1891 4.14188C14.7622 4.30874 15 4.54817 15 4.99915C15 5.31573 14.9359 5.70146 14.8101 6.15775C14.7161 6.49872 14.5944 6.85952 14.4229 7.31981C14.3986 7.38514 14.3378 7.54524 14.2733 7.71547L14.2731 7.71592C14.1944 7.92318 14.1102 8.14534 14.079 8.22969C13.9489 8.58132 13.8633 8.84021 13.8047 9.07546C13.5555 10.0755 13.8055 10.9991 15 10.9991H19C19.6912 10.9991 20 11.359 20 11.9991C20 16.7899 19.0151 19.9991 18 19.9991H11L10.9631 19.9998C10.5254 20.0076 9.91062 19.9395 9.33688 19.7342ZM4 20V11H6V20H4Z" fill="#343C44"/>
</svg>
