<svg width="24" height="24" viewBox="0 0 24 24" fill="none" xmlns="http://www.w3.org/2000/svg">
<path fill-rule="evenodd" clip-rule="evenodd" d="M21.7792 11.3731L16.9512 5.37306C16.6032 4.94306 15.9742 4.87306 15.5452 5.22106C15.1142 5.56706 15.0472 6.19606 15.3922 6.62706L19.7082 11.9891L15.2312 17.3591C14.8782 17.7841 14.9352 18.4151 15.3592 18.7691C15.5472 18.9241 15.7732 19.0001 15.9992 19.0001C16.2862 19.0001 16.5702 18.8781 16.7682 18.6411L21.7682 12.6411C22.0732 12.2741 22.0782 11.7441 21.7792 11.3731ZM4.29192 12.0108L8.76892 6.64076C9.12192 6.21576 9.06392 5.58476 8.64092 5.23176C8.21492 4.87876 7.58592 4.93576 7.23092 5.35976L2.23092 11.3598C1.92692 11.7258 1.92192 12.2558 2.22092 12.6268L7.04892 18.6268C7.24692 18.8718 7.53592 18.9998 7.82892 18.9998C8.04892 18.9998 8.27092 18.9278 8.45492 18.7798C8.88592 18.4328 8.95292 17.8038 8.60692 17.3728L4.29192 12.0108ZM14.3055 11.3842C14.7015 11.0002 15.3365 11.0132 15.7195 11.4092C16.1025 11.8062 16.0915 12.4392 15.6945 12.8232L12.6945 15.7202C12.5005 15.9062 12.2495 16.0002 11.9995 16.0002C11.7435 16.0002 11.4885 15.9022 11.2925 15.7072L8.2925 12.7072C7.9025 12.3162 7.9025 11.6832 8.2925 11.2932C8.6835 10.9022 9.3165 10.9022 9.7065 11.2932L10.9995 12.5852V8.00024C10.9995 7.44724 11.4475 7.00024 11.9995 7.00024C12.5525 7.00024 12.9995 7.44724 12.9995 8.00024V12.6442L14.3055 11.3842Z" fill="#343C44"/>
</svg>
