<svg width="24" height="24" viewBox="0 0 24 24" fill="none" xmlns="http://www.w3.org/2000/svg">
<path fill-rule="evenodd" clip-rule="evenodd" d="M13.5 18.1017L8.399 14.6037C8.232 14.4907 8.035 14.4287 7.833 14.4287H3.5V9.57165H7.833C8.035 9.57165 8.232 9.50965 8.399 9.39665L13.5 5.89865V18.1017ZM14.966 3.11565C14.637 2.94165 14.24 2.96465 13.935 3.17465L7.523 7.57165H2.5C1.948 7.57165 1.5 8.01865 1.5 8.57165V15.4287C1.5 15.9817 1.948 16.4287 2.5 16.4287H7.523L13.935 20.8257C14.104 20.9417 14.302 20.9997 14.5 20.9997C14.66 20.9997 14.82 20.9617 14.966 20.8847C15.294 20.7117 15.5 20.3717 15.5 19.9997V3.99965C15.5 3.62865 15.294 3.28865 14.966 3.11565ZM18.2792 8.37302C17.9322 7.94302 17.3032 7.87602 16.8732 8.22102C16.4432 8.56702 16.3742 9.19602 16.7202 9.62702C17.7562 10.913 17.7562 13.087 16.7202 14.373C16.3742 14.804 16.4432 15.433 16.8732 15.779C17.0582 15.928 17.2792 16 17.4992 16C17.7912 16 18.0812 15.872 18.2792 15.627C19.9152 13.593 19.9152 10.407 18.2792 8.37302ZM18.2297 5.36255C18.5817 4.93655 19.2127 4.87755 19.6377 5.22955C21.8057 7.02555 22.9997 9.43055 22.9997 12.0006C22.9997 14.5696 21.8057 16.9746 19.6377 18.7706C19.4507 18.9246 19.2247 19.0006 19.0007 19.0006C18.7127 19.0006 18.4277 18.8766 18.2297 18.6376C17.8777 18.2126 17.9367 17.5826 18.3627 17.2296C20.0627 15.8206 20.9997 13.9636 20.9997 12.0006C20.9997 10.0366 20.0627 8.17955 18.3627 6.77055C17.9367 6.41755 17.8777 5.78755 18.2297 5.36255Z" fill="#343C44"/>
</svg>
