<svg width="24" height="24" viewBox="0 0 24 24" fill="none" xmlns="http://www.w3.org/2000/svg">
<path fill-rule="evenodd" clip-rule="evenodd" d="M4.35962 3.04466L4.82916 2.10557C5.16795 1.428 5.86048 1 6.61802 1H17.382C18.1395 1 18.832 1.428 19.1708 2.10557L19.6404 3.04466C20.3736 3.20235 20.9718 3.76416 21.1595 4.51493L21.6595 6.51493C21.9274 7.58652 21.2759 8.67239 20.2043 8.94029C20.0939 8.96789 19.9814 8.98599 19.8681 8.99445L17.9899 22.1414C17.9196 22.6341 17.4976 23 17 23H6.99999C6.50234 23 6.08041 22.6341 6.01004 22.1414L4.13191 8.99454C3.09686 8.91839 2.28076 8.0545 2.28076 7C2.28076 6.83648 2.30082 6.67357 2.34048 6.51493L2.84048 4.51493C3.02817 3.76416 3.62641 3.20235 4.35962 3.04466ZM7.306 9H16.694C17.3025 9 17.77 9.53899 17.6839 10.1414L16.2553 20.1414C16.185 20.6341 15.763 21 15.2654 21H8.73457C8.23692 21 7.815 20.6341 7.74463 20.1414L6.31605 10.1414C6.22999 9.53899 6.69746 9 7.306 9ZM4.78076 5H5.61802L6.61802 3H17.382L18.382 5H19.2192L19.7192 7H4.28076L4.78076 5Z" fill="#343C44"/>
</svg>
