<svg width="24" height="24" viewBox="0 0 24 24" fill="none" xmlns="http://www.w3.org/2000/svg">
<path fill-rule="evenodd" clip-rule="evenodd" d="M19 10.3081C18.448 10.3081 18 9.86012 18 9.30812L17.999 7.41512L5.70701 19.7071C5.51201 19.9021 5.25601 20.0001 5.00001 20.0001C4.74401 20.0001 4.48801 19.9021 4.29301 19.7071C3.90201 19.3161 3.90201 18.6831 4.29301 18.2931L10.58 12.0061L4.74801 6.17512C4.35701 5.78412 4.35701 5.15112 4.74801 4.76112C5.13901 4.37012 5.77101 4.37012 6.16201 4.76112L11.994 10.5921L16.576 6.00912L14.687 6.00012C14.135 5.99712 13.689 5.54712 13.692 4.99512C13.695 4.44312 14.169 4.01012 14.697 4.00012L19.002 4.02112C19.552 4.02412 19.997 4.47112 19.997 5.02112L20 9.30712C20 9.85912 19.553 10.3071 19.001 10.3081H19ZM19 13.6792H19.005C19.558 13.6823 20.003 14.1322 20 14.6842L19.979 18.8923C20.011 19.1833 19.931 19.4843 19.707 19.7073C19.512 19.9023 19.256 20.0002 19 20.0002C18.9848 20.0002 18.9699 19.9961 18.9549 19.992C18.9434 19.9888 18.9318 19.9856 18.92 19.9843L14.693 19.9872C14.141 19.9872 13.693 19.5392 13.693 18.9872C13.693 18.4352 14.14 17.9872 14.692 17.9872L16.571 17.9862L13.793 15.2072C13.402 14.8162 13.402 14.1833 13.793 13.7933C14.184 13.4023 14.817 13.4023 15.207 13.7933L17.99 16.5763L18 14.6742C18.003 14.1233 18.45 13.6792 19 13.6792Z" fill="#343C44"/>
</svg>
