<svg width="24" height="24" viewBox="0 0 24 24" fill="none" xmlns="http://www.w3.org/2000/svg">
<path fill-rule="evenodd" clip-rule="evenodd" d="M17 15.5859L15 13.5859L8.414 6.99988L6.414 4.99988L4.707 3.29288C4.316 2.90188 3.684 2.90188 3.293 3.29288C2.902 3.68388 2.902 4.31588 3.293 4.70688L3.826 5.23988L5.586 6.99988L14.931 16.3449L16.386 17.7999L19.293 20.7069C19.488 20.9019 19.744 20.9999 20 20.9999C20.256 20.9999 20.512 20.9019 20.707 20.7069C21.098 20.3159 21.098 19.6839 20.707 19.2929L17 15.5859ZM20 14.5996L17.191 11.9996L20 9.40058V14.5996ZM21.012 7.14558C20.386 6.87258 19.66 6.99158 19.161 7.45158L17 9.45158V7.99958C17 6.34558 15.654 4.99958 14 4.99958H7.828L9.828 6.99958H14C14.552 6.99958 15 7.44858 15 7.99958V12.1716L19.718 16.8896C19.91 16.9616 20.113 16.9996 20.319 16.9996C20.553 16.9996 20.788 16.9526 21.012 16.8546C21.621 16.5886 22 16.0196 22 15.3706V8.62958C22 7.98058 21.621 7.41158 21.012 7.14558ZM5 17H14C14.0313 17 14.0595 16.9921 14.088 16.9841C14.106 16.9791 14.124 16.9741 14.143 16.971L15.665 18.493C15.188 18.812 14.616 19 14 19H5C3.346 19 2 17.654 2 16V7.99998C2 7.12898 2.379 6.35098 2.974 5.80198L4.396 7.22398C4.161 7.40698 4 7.67998 4 7.99998V16C4 16.552 4.448 17 5 17Z" fill="#343C44"/>
</svg>
