<svg width="24" height="24" viewBox="0 0 24 24" fill="none" xmlns="http://www.w3.org/2000/svg">
<path fill-rule="evenodd" clip-rule="evenodd" d="M11.9832 7.32294L6.3662 12.9399L6.1022 15.8959L9.0792 15.6249L14.6792 10.0189L11.9832 7.32294ZM17.9663 6.72891L15.2713 4.03491L13.3233 5.98291L16.0183 8.67891L17.9663 6.72891ZM5.0912 17.9959C5.0602 17.9989 5.0302 17.9999 5.0002 17.9999C4.7362 17.9999 4.4812 17.8959 4.2932 17.7069C4.0832 17.4969 3.9772 17.2049 4.0042 16.9099L4.3832 12.7389C4.4252 12.2819 4.6272 11.8509 4.9522 11.5259L13.9482 2.52894C14.6502 1.82494 15.9242 1.85994 16.6642 2.59894L19.4022 5.33694H19.4032C20.1692 6.10394 20.1992 7.32094 19.4712 8.05094L10.4742 17.0479C10.1492 17.3739 9.7192 17.5749 9.2612 17.6169L5.0912 17.9959ZM5 20H19C19.55 20 20 20.45 20 21C20 21.55 19.55 22 19 22H5C4.45 22 4 21.55 4 21C4 20.45 4.45 20 5 20Z" fill="#343C44"/>
</svg>
