<svg width="24" height="24" viewBox="0 0 24 24" fill="none" xmlns="http://www.w3.org/2000/svg">
<path fill-rule="evenodd" clip-rule="evenodd" d="M9.69824 14.0001L10.4272 10.0001H14.3022L13.5732 14.0001H9.69824ZM20.0002 14.0001H15.6982L16.4272 10.0001H20.0002C20.5502 10.0001 21.0002 9.55006 21.0002 9.00006C21.0002 8.45006 20.5502 8.00006 20.0002 8.00006H16.7902L17.4842 4.18906C17.5842 3.64106 17.2022 3.11206 16.6352 3.01606C16.0682 2.91906 15.5232 3.28906 15.4232 3.83806L14.6652 8.00006H10.7902L11.4842 4.18906C11.5842 3.64106 11.2022 3.11206 10.6352 3.01606C10.0682 2.91906 9.52324 3.28906 9.42324 3.83806L8.66524 8.00006H4.00024C3.45024 8.00006 3.00024 8.45006 3.00024 9.00006C3.00024 9.55006 3.45024 10.0001 4.00024 10.0001H8.30224L7.57324 14.0001H4.00024C3.45024 14.0001 3.00024 14.4501 3.00024 15.0001C3.00024 15.5501 3.45024 16.0001 4.00024 16.0001H7.20924L6.51524 19.8111C6.41624 20.3591 6.79824 20.8881 7.36524 20.9841C7.93124 21.0811 8.47724 20.7111 8.57624 20.1621L9.33424 16.0001H13.2092L12.5152 19.8111C12.4162 20.3591 12.7982 20.8881 13.3652 20.9841C13.9312 21.0811 14.4772 20.7111 14.5762 20.1621L15.3342 16.0001H20.0002C20.5502 16.0001 21.0002 15.5501 21.0002 15.0001C21.0002 14.4501 20.5502 14.0001 20.0002 14.0001Z" fill="#343C44"/>
</svg>
