<svg width="24" height="24" viewBox="0 0 24 24" fill="none" xmlns="http://www.w3.org/2000/svg">
<path fill-rule="evenodd" clip-rule="evenodd" d="M15.828 16.0002C15.879 15.9772 16 15.8242 16 15.5712V8.42824C16 8.17024 15.874 8.01624 15.824 7.99824L4.167 8.00024C4.126 8.01624 4 8.17024 4 8.42824V15.5712C4 15.8292 4.126 15.9832 4.176 16.0012L15.828 16.0002ZM4.167 6.00024H15.833C17.028 6.00024 18 7.08924 18 8.42824V15.5712C18 16.9102 17.028 18.0002 15.833 18.0002H4.167C2.972 18.0002 2 16.9102 2 15.5712V8.42824C2 7.08924 2.972 6.00024 4.167 6.00024ZM20 9.99994C20 9.44794 20.448 8.99994 21 8.99994C21.552 8.99994 22 9.44794 22 9.99994V13.9999C22 14.5519 21.552 14.9999 21 14.9999C20.448 14.9999 20 14.5519 20 13.9999V9.99994Z" fill="#343C44"/>
</svg>
