<svg width="24" height="24" viewBox="0 0 24 24" fill="none" xmlns="http://www.w3.org/2000/svg">
<path fill-rule="evenodd" clip-rule="evenodd" d="M11.527 3.89973C13.709 1.71273 17.23 1.31773 19.662 3.21973C22.575 5.49773 22.766 9.74273 20.235 12.2797L18.812 13.7047C18.419 14.0987 17.783 14.0987 17.39 13.7047C16.997 13.3117 16.997 12.6727 17.39 12.2797L18.812 10.8537C20.467 9.19673 20.377 6.44173 18.54 4.90373C16.913 3.54073 14.471 3.80073 12.972 5.30273L11.699 6.57773C11.307 6.97173 10.669 6.97173 10.277 6.57773C9.88398 6.18473 9.87998 5.54973 10.454 4.97473L11.527 3.89973ZM13.2928 9.29301L9.29276 13.293C8.90176 13.684 8.90176 14.316 9.29276 14.707C9.48776 14.902 9.74376 15 9.99976 15C10.2558 15 10.5118 14.902 10.7068 14.707L14.7068 10.707C15.0978 10.316 15.0978 9.68401 14.7068 9.29301C14.3158 8.90201 13.6838 8.90201 13.2928 9.29301ZM12.2802 17.3965L11.0062 18.6675C9.50518 20.1645 7.05818 20.4225 5.43018 19.0655C3.59118 17.5335 3.50018 14.7875 5.15718 13.1345L6.58218 11.7145C6.97518 11.3225 6.97518 10.6865 6.58218 10.2935C6.18918 9.90253 5.55118 9.90253 5.15718 10.2935L3.88218 11.5665C1.71018 13.7325 1.32918 17.2165 3.20718 19.6405C5.47818 22.5735 9.73818 22.7715 12.2802 20.2375L13.7052 18.8175C14.0982 18.4245 14.0982 17.7895 13.7052 17.3965C13.3112 17.0035 12.6742 17.0035 12.2802 17.3965Z" fill="#343C44"/>
</svg>
