<svg width="24" height="24" viewBox="0 0 24 24" fill="none" xmlns="http://www.w3.org/2000/svg">
<path fill-rule="evenodd" clip-rule="evenodd" d="M10 5C11.103 5 12 5.897 12 7C12 8.103 11.103 9 10 9C8.897 9 8 8.103 8 7C8 5.897 8.897 5 10 5ZM10 11C12.206 11 14 9.206 14 7C14 4.794 12.206 3 10 3C7.794 3 6 4.794 6 7C6 9.206 7.794 11 10 11ZM21.6563 4.24564C21.2393 3.88364 20.6083 3.92664 20.2453 4.34364L18.3793 6.48864L17.7453 5.77964C17.3783 5.36764 16.7463 5.33264 16.3333 5.70164C15.9223 6.06964 15.8863 6.70264 16.2553 7.11364L17.6443 8.66664C17.8343 8.87864 18.1053 8.99964 18.3893 8.99964H18.3963C18.6833 8.99764 18.9563 8.87264 19.1443 8.65664L21.7553 5.65664C22.1173 5.23964 22.0733 4.60764 21.6563 4.24564ZM3 20C3 16.14 6.141 13 10 13C13.859 13 17 16.14 17 20C17 20.552 16.553 21 16 21C15.447 21 15 20.552 15 20C15 17.243 12.757 15 10 15C7.243 15 5 17.243 5 20C5 20.552 4.553 21 4 21C3.447 21 3 20.552 3 20Z" fill="#343C44"/>
</svg>
