<svg width="24" height="24" viewBox="0 0 24 24" fill="none" xmlns="http://www.w3.org/2000/svg">
<path fill-rule="evenodd" clip-rule="evenodd" d="M4.00049 6.6C4.00049 13.988 10.0115 20 17.4005 20C18.8345 20 20.0005 18.834 20.0005 17.4C20.0005 17.289 19.9935 17.18 19.9785 17.072L15.3585 16.012C15.3173 16.0903 15.2748 16.172 15.2319 16.2543C15.1789 16.356 15.1254 16.4586 15.0735 16.557L15.0649 16.5734C14.6144 17.4349 14.2891 18.0569 13.4465 17.72C10.1395 16.56 7.44049 13.86 6.26549 10.514C5.94349 9.711 6.57249 9.382 7.44349 8.927C7.62149 8.833 7.81249 8.733 7.98849 8.642L6.92749 4.021C6.81749 4.007 6.70949 4 6.59949 4C5.16649 4 4.00049 5.166 4.00049 6.6ZM21.7515 15.908C21.8335 16.144 21.8955 16.389 21.9355 16.639C21.9775 16.887 22.0005 17.142 22.0005 17.4C22.0005 19.937 19.9365 22 17.4005 22C8.90849 22 2.00049 15.092 2.00049 6.6C2.00049 4.063 4.06349 2 6.59949 2C6.86049 2 7.11649 2.022 7.36549 2.065C7.60849 2.104 7.85449 2.166 8.09149 2.249C8.41749 2.361 8.66149 2.634 8.73849 2.97L10.1075 8.934C10.1825 9.262 10.0885 9.606 9.85449 9.85C9.71749 9.992 9.71349 9.995 8.47449 10.645C9.46549 12.807 11.2145 14.553 13.3545 15.527C14.0045 14.285 14.0075 14.282 14.1505 14.146C14.3935 13.912 14.7375 13.819 15.0665 13.893L21.0305 15.262C21.3665 15.339 21.6385 15.583 21.7515 15.908ZM17.268 8.69825C16.864 9.10025 16.205 9.10025 15.802 8.69825C15.4 8.29525 15.4 7.63625 15.802 7.23225L16.535 6.50025L15.802 5.76725C15.4 5.36425 15.4 4.70525 15.802 4.30225C16.205 3.89925 16.864 3.89925 17.268 4.30225L18 5.03525L18.733 4.30225C19.136 3.89925 19.795 3.89925 20.198 4.30225C20.601 4.70525 20.601 5.36425 20.198 5.76725L19.465 6.50025L20.198 7.23225C20.601 7.63625 20.601 8.29525 20.198 8.69825C19.795 9.10025 19.136 9.10025 18.733 8.69825L18 7.96525L17.268 8.69825Z" fill="#343C44"/>
</svg>
