<svg width="24" height="24" viewBox="0 0 24 24" fill="none" xmlns="http://www.w3.org/2000/svg">
<path fill-rule="evenodd" clip-rule="evenodd" d="M9.99962 5C11.1026 5 11.9996 5.897 11.9996 7C11.9996 8.103 11.1026 9 9.99962 9C8.89662 9 7.99962 8.103 7.99962 7C7.99962 5.897 8.89662 5 9.99962 5ZM9.9996 11C12.2056 11 13.9996 9.206 13.9996 7C13.9996 4.794 12.2056 3 9.9996 3C7.7936 3 5.9996 4.794 5.9996 7C5.9996 9.206 7.7936 11 9.9996 11ZM20.4647 7.50001L21.1977 6.76801C21.6007 6.36401 21.6007 5.70501 21.1977 5.30201C20.7947 4.89901 20.1357 4.89901 19.7327 5.30201L18.9997 6.03501L18.2677 5.30201C17.8637 4.89901 17.2047 4.89901 16.8017 5.30201C16.3997 5.70501 16.3997 6.36401 16.8017 6.76801L17.5347 7.50001L16.8017 8.23201C16.3997 8.63601 16.3997 9.29501 16.8017 9.69801C17.2047 10.101 17.8637 10.101 18.2677 9.69801L18.9997 8.96501L19.7327 9.69801C20.1357 10.101 20.7947 10.101 21.1977 9.69801C21.6007 9.29501 21.6007 8.63601 21.1977 8.23201L20.4647 7.50001ZM2.99976 20C2.99976 16.141 6.14076 13 9.99976 13C13.8588 13 16.9998 16.141 16.9998 20C16.9998 20.553 16.5528 21 15.9998 21C15.4468 21 14.9998 20.553 14.9998 20C14.9998 17.243 12.7568 15 9.99976 15C7.24276 15 4.99976 17.243 4.99976 20C4.99976 20.553 4.55276 21 3.99976 21C3.44676 21 2.99976 20.553 2.99976 20Z" fill="#343C44"/>
</svg>
