<svg width="24" height="24" viewBox="0 0 24 24" fill="none" xmlns="http://www.w3.org/2000/svg">
<path fill-rule="evenodd" clip-rule="evenodd" d="M16.137 15.558C16.0609 15.3574 15.9826 15.151 15.9548 15.0758L15.927 15H19C20.8696 15 22 13.6825 22 12C22 6.05648 20.7551 2.00005 18 2.00005C18 2.00005 11.0231 2.00027 10.9989 1.99976C10.3408 1.98796 9.50544 2.0805 8.66312 2.38187C8.29505 2.51356 7.95642 2.67742 7.65294 2.87375C7.29284 2.34629 6.68686 2.00005 6 2.00005H4C2.89543 2.00005 2 2.89548 2 4.00005V13C2 14.1046 2.89543 15 4 15H6C6.19836 15 6.38997 14.9712 6.57086 14.9174C7.26776 15.9321 9.03061 17.9465 10.447 19.5651C11.215 20.4426 11.8811 21.2038 12.2203 21.6262L12.5205 22H13.0077C13.6148 22.0001 14.1423 21.954 14.7483 21.7776C16.0919 21.3863 17 20.4721 17 19C17 18.4799 16.9079 17.9254 16.7382 17.3099C16.626 16.9027 16.4872 16.4915 16.2971 15.9811C16.2699 15.9082 16.2043 15.7354 16.137 15.558ZM8 13V6.00005C8 5.09782 8.45197 4.58158 9.33688 4.26497C9.91062 4.05969 10.5254 3.99159 10.9656 3.99946L16.5338 4.00003L18 4.00005C19.0151 4.00005 20 7.2093 20 12C20 12.6402 19.6912 13 19 13H15C13.8055 13 13.5555 13.9237 13.8047 14.9237C13.8633 15.159 13.9489 15.4179 14.079 15.7695C14.1101 15.8538 14.1944 16.0759 14.273 16.2831L14.2732 16.2835L14.2733 16.2838L14.2733 16.2838C14.3378 16.454 14.3986 16.6141 14.4229 16.6794C14.5944 17.1397 14.7161 17.5005 14.8101 17.8414C14.9359 18.2977 15 18.6835 15 19C15 19.451 14.7622 19.6905 14.1891 19.8573C13.9484 19.9274 13.7114 19.9661 13.46 19.9849C12.9338 19.3559 12.1802 18.4962 11.4047 17.6114C9.90193 15.8969 8.31645 14.088 8.14171 13.6801C8.04443 13.4529 8 13.2402 8 13ZM4 13V4.00005H6V13H4Z" fill="#343C44"/>
</svg>
