<svg width="24" height="24" viewBox="0 0 24 24" fill="none" xmlns="http://www.w3.org/2000/svg">
<path fill-rule="evenodd" clip-rule="evenodd" d="M3.5 11C3.5 9.05903 4.438 7.20003 6.144 5.76603C6.566 5.40903 6.621 4.77803 6.266 4.35603C5.909 3.93403 5.279 3.87903 4.856 4.23403C2.692 6.05603 1.5 8.45903 1.5 11C1.5 13.541 2.692 15.944 4.856 17.766C5.044 17.923 5.272 18 5.499 18C5.784 18 6.067 17.879 6.266 17.644C6.621 17.222 6.566 16.591 6.144 16.234C4.438 14.8 3.5 12.941 3.5 11ZM12 12C11.448 12 11 11.552 11 11C11 10.448 11.448 10 12 10C12.552 10 13 10.448 13 11C13 11.552 12.552 12 12 12ZM12 8.00002C10.346 8.00002 9 9.34602 9 11C9 12.314 9.855 13.422 11.035 13.826C11.0311 13.847 11.0255 13.8673 11.02 13.8874L11.02 13.8875C11.0099 13.9239 11 13.9601 11 14V20C11 20.553 11.447 21 12 21C12.553 21 13 20.553 13 20V14C13 13.9601 12.9901 13.9239 12.98 13.8875L12.98 13.8874C12.9745 13.8673 12.9689 13.847 12.965 13.826C14.145 13.422 15 12.314 15 11C15 9.34602 13.654 8.00002 12 8.00002ZM15.2357 6.35639C15.5897 5.93439 16.2207 5.87839 16.6437 6.23539C18.1637 7.51339 18.9997 9.20639 18.9997 11.0004C18.9997 12.7944 18.1637 14.4864 16.6437 15.7644C16.4567 15.9234 16.2277 16.0004 16.0007 16.0004C15.7157 16.0004 15.4327 15.8794 15.2357 15.6434C14.8787 15.2214 14.9337 14.5904 15.3567 14.2354C16.4157 13.3424 16.9997 12.1934 16.9997 11.0004C16.9997 9.80639 16.4157 8.65739 15.3567 7.76439C14.9337 7.40939 14.8787 6.77839 15.2357 6.35639ZM8.7646 6.35642C8.4106 5.93342 7.7806 5.87742 7.3566 6.23542C5.8366 7.51342 4.9996 9.20642 4.9996 11.0004C4.9996 12.7934 5.8366 14.4864 7.3566 15.7644C7.5436 15.9224 7.7726 16.0004 7.9986 16.0004C8.2846 16.0004 8.5676 15.8784 8.7646 15.6434C9.1206 15.2214 9.0666 14.5904 8.6436 14.2354C7.5836 13.3424 6.9996 12.1934 6.9996 11.0004C6.9996 9.80643 7.5836 8.65742 8.6436 7.76442C9.0666 7.40942 9.1206 6.77842 8.7646 6.35642ZM17.7346 4.35642C18.0906 3.93442 18.7196 3.88042 19.1436 4.23442C21.3076 6.05542 22.4996 8.45942 22.4996 11.0004C22.4996 13.5414 21.3076 15.9444 19.1436 17.7654C18.9566 17.9224 18.7276 18.0004 18.5006 18.0004C18.2156 18.0004 17.9326 17.8794 17.7346 17.6434C17.3786 17.2214 17.4336 16.5904 17.8566 16.2344C19.5616 14.7994 20.4996 12.9414 20.4996 11.0004C20.4996 9.05842 19.5616 7.20042 17.8566 5.76542C17.4336 5.40943 17.3786 4.77842 17.7346 4.35642Z" fill="#343C44"/>
</svg>
