<svg width="24" height="24" viewBox="0 0 24 24" fill="none" xmlns="http://www.w3.org/2000/svg">
<path fill-rule="evenodd" clip-rule="evenodd" d="M10.4998 6.5C10.4998 5.672 11.1718 5 11.9998 5C12.8278 5 13.4998 5.672 13.4998 6.5C13.4998 7.328 12.8278 8 11.9998 8C11.1718 8 10.4998 7.328 10.4998 6.5ZM14.7009 9.2502C14.2869 8.5332 14.5329 7.6152 15.2499 7.2012C15.9679 6.7872 16.8849 7.0332 17.2989 7.7502C17.7129 8.4682 17.4669 9.3852 16.7499 9.7992C16.0319 10.2132 15.1149 9.9682 14.7009 9.2502ZM8.74988 7.2012C8.03288 6.7872 7.11488 7.0332 6.70088 7.7502C6.28688 8.4682 6.53288 9.3852 7.24988 9.7992C7.96788 10.2132 8.88488 9.9682 9.29888 9.2502C9.71288 8.5332 9.46788 7.6152 8.74988 7.2012ZM5.75698 13.3388C5.29298 12.6528 5.47398 11.7198 6.16098 11.2568C6.84798 10.7928 7.77998 10.9748 8.24298 11.6608C8.70698 12.3478 8.52498 13.2798 7.83898 13.7428C7.15198 14.2068 6.21998 14.0258 5.75698 13.3388ZM15.881 15.001H14.231C12.852 15.001 11.731 16.122 11.731 17.501C11.731 18.107 11.955 18.694 12.362 19.154C12.486 19.294 12.527 19.459 12.483 19.642C12.434 19.847 12.198 19.98 11.889 20C9.60601 19.969 7.43901 18.958 5.94301 17.227C4.42801 15.472 3.76401 13.223 4.07401 10.895C4.58501 7.062 8.03201 4.033 11.923 4H11.998C14.355 4 16.576 4.9 18.105 6.478C19.393 7.807 20.065 9.502 19.995 11.25C19.916 13.248 17.993 15.001 15.881 15.001ZM19.5399 5.08503C17.6169 3.10103 14.8149 1.99303 11.9059 2.00003H11.9049C6.96089 2.04203 2.74089 5.75203 2.09189 10.631C1.70989 13.491 2.56289 16.372 4.42989 18.534C6.29789 20.698 9.00689 21.961 11.8609 22H11.8989C13.0989 22 14.1569 21.213 14.4259 20.114C14.6249 19.292 14.4179 18.458 13.8589 17.826C13.7769 17.735 13.7309 17.616 13.7309 17.501C13.7309 17.226 13.9549 17.001 14.2309 17.001H15.8809C19.0729 17.001 21.8719 14.403 21.9929 11.329C22.0849 9.02903 21.2139 6.81203 19.5399 5.08503Z" fill="#343C44"/>
</svg>
