<svg width="24" height="24" viewBox="0 0 24 24" fill="none" xmlns="http://www.w3.org/2000/svg">
<path fill-rule="evenodd" clip-rule="evenodd" d="M18.9999 17.4541L16.9999 16.5561V6.54608L18.9999 7.44408V17.4541ZM13 7.44402L15 6.54602V16.556L13 17.454V7.44402ZM8.99984 6.54608L10.9998 7.44408V17.4541L8.99984 16.5561V6.54608ZM4.99978 7.44408L6.99978 6.54608V16.5561L4.99978 17.4541V7.44408ZM20.4098 5.88608L16.4098 4.08808C16.3948 4.08108 16.3788 4.08008 16.3638 4.07408C16.3228 4.05808 16.2818 4.04708 16.2398 4.03608C16.2008 4.02608 16.1618 4.01708 16.1218 4.01308C16.0828 4.00808 16.0438 4.00708 16.0038 4.00708C15.9598 4.00708 15.9168 4.00808 15.8728 4.01308C15.8358 4.01708 15.8008 4.02608 15.7648 4.03508C15.7208 4.04608 15.6778 4.05808 15.6348 4.07408C15.6208 4.08008 15.6038 4.08108 15.5898 4.08808L11.9998 5.70108L8.40976 4.08808C8.39476 4.08108 8.37876 4.08008 8.36376 4.07408C8.32276 4.05808 8.28176 4.04708 8.23976 4.03608C8.20076 4.02608 8.16176 4.01708 8.12176 4.01308C8.08276 4.00808 8.04376 4.00708 8.00376 4.00708C7.95976 4.00708 7.91676 4.00808 7.87276 4.01308C7.83576 4.01708 7.80076 4.02608 7.76476 4.03508C7.72076 4.04608 7.67776 4.05808 7.63476 4.07408C7.62076 4.08008 7.60376 4.08108 7.58976 4.08808L3.58976 5.88608C3.23076 6.04708 2.99976 6.40408 2.99976 6.79808V19.0001C2.99976 19.3391 3.17176 19.6551 3.45676 19.8401C3.62076 19.9461 3.80976 20.0001 3.99976 20.0001C4.13876 20.0001 4.27876 19.9711 4.40976 19.9121L7.99976 18.2991L11.5898 19.9121C11.6048 19.9191 11.6208 19.9161 11.6368 19.9221C11.7538 19.9691 11.8748 20.0001 11.9998 20.0001C12.1248 20.0001 12.2458 19.9691 12.3628 19.9221C12.3778 19.9161 12.3958 19.9191 12.4098 19.9121L15.9998 18.2991L19.5898 19.9121C19.7208 19.9711 19.8608 20.0001 19.9998 20.0001C20.1898 20.0001 20.3788 19.9461 20.5428 19.8401C20.8278 19.6551 20.9998 19.3391 20.9998 19.0001V6.79808C20.9998 6.40408 20.7688 6.04708 20.4098 5.88608Z" fill="#343C44"/>
</svg>
