<svg width="24" height="24" viewBox="0 0 24 24" fill="none" xmlns="http://www.w3.org/2000/svg">
<path fill-rule="evenodd" clip-rule="evenodd" d="M4 13.7554V18.0684C4 18.3064 4.224 18.5004 4.5 18.5004H19.5C19.776 18.5004 20 18.3064 20 18.0684V9.47837C20 9.23937 19.776 9.04637 19.5 9.04637H12C11.7 9.04637 11.416 8.91137 11.226 8.67837L8.626 5.50037H4.5C4.224 5.50037 4 5.69337 4 5.93137V13.7554ZM19.5 20.5004H4.5C3.122 20.5004 2 19.4094 2 18.0684V5.93137C2 4.59037 3.122 3.50037 4.5 3.50037H9.101C9.4 3.50037 9.685 3.63437 9.875 3.86737L12.474 7.04637H19.5C20.878 7.04637 22 8.13637 22 9.47837V18.0684C22 19.4094 20.878 20.5004 19.5 20.5004Z" fill="#343C44"/>
</svg>
