<svg width="24" height="24" viewBox="0 0 24 24" fill="none" xmlns="http://www.w3.org/2000/svg">
<path fill-rule="evenodd" clip-rule="evenodd" d="M8.90049 5.17096C9.93849 4.26096 11.2615 3.86096 12.6375 4.04196C14.9645 4.35096 16.7195 6.45496 16.7195 8.93696V13.404C16.7195 13.606 16.7585 13.8 16.8155 13.987L20.4205 17.591C20.6095 17.428 20.7725 17.233 20.8735 16.991C21.1285 16.378 20.9895 15.677 20.5205 15.208L18.7195 13.404V8.93696C18.7195 5.45596 16.2175 2.49896 12.8995 2.05996C10.9755 1.80396 9.03949 2.39096 7.58349 3.66696C7.38849 3.83696 7.20749 4.01796 7.03549 4.20696L8.46749 5.63996C8.49864 5.60436 8.52933 5.56842 8.56003 5.53249L8.56003 5.53249C8.66731 5.40689 8.77453 5.28137 8.90049 5.17096ZM12.0001 20.0001C10.9161 20.0001 10.0001 19.2401 10.0001 18.3411V18.0001H14.0001V18.3411C14.0001 19.2401 13.0841 20.0001 12.0001 20.0001ZM14.0291 16.8571L13.1721 16.0001H5.51509L6.69409 14.8181C7.07209 14.4401 7.28009 13.9381 7.28009 13.4041V10.1081L5.31209 8.14005C5.29509 8.33505 5.28009 8.53005 5.28009 8.72705L5.27909 13.4041L3.47909 15.2081C3.01009 15.6781 2.87109 16.3771 3.12509 16.9901C3.38009 17.6041 3.97309 18.0001 4.63709 18.0001H8.00009V18.3411C8.00009 20.3591 9.79409 22.0001 12.0001 22.0001C14.0421 22.0001 15.7121 20.5891 15.9511 18.7801L15.1721 18.0001L14.0291 16.8571ZM19.4071 17.9931L20.7071 19.2931C21.0981 19.6841 21.0981 20.3161 20.7071 20.7071C20.5121 20.9021 20.2561 21.0001 20.0001 21.0001C19.7441 21.0001 19.4881 20.9021 19.2931 20.7071L16.5861 18.0001L16.0001 17.4141L14.6551 16.0691L14.5861 16.0001L7.28309 8.69706L5.53109 6.94606L3.29309 4.70706C2.90209 4.31606 2.90209 3.68406 3.29309 3.29306C3.68409 2.90206 4.31609 2.90206 4.70709 3.29306L6.42009 5.00606L7.88609 6.47106L17.4141 16.0001L19.4071 17.9931Z" fill="#343C44"/>
</svg>
