<svg width="24" height="24" viewBox="0 0 24 24" fill="none" xmlns="http://www.w3.org/2000/svg">
<path fill-rule="evenodd" clip-rule="evenodd" d="M11.9999 13.7021C12.1919 13.7021 12.3849 13.7581 12.5519 13.8681L17.4319 17.0991L11.9999 6.23608L6.56787 17.0991L11.4479 13.8681C11.6149 13.7581 11.8079 13.7021 11.9999 13.7021ZM20 21.0001C19.808 21.0001 19.616 20.9451 19.448 20.8341L12 15.9011L4.55198 20.8341C4.17398 21.0831 3.67598 21.0491 3.33698 20.7491C2.99798 20.4481 2.90298 19.9581 3.10498 19.5531L11.105 3.55306C11.444 2.87506 12.556 2.87506 12.895 3.55306L20.895 19.5531C21.097 19.9581 21.002 20.4481 20.663 20.7491C20.475 20.9151 20.238 21.0001 20 21.0001Z" fill="#343C44"/>
</svg>
