<svg width="24" height="24" viewBox="0 0 24 24" fill="none" xmlns="http://www.w3.org/2000/svg">
<path fill-rule="evenodd" clip-rule="evenodd" d="M11.193 8.36437L11.455 5.94337L10.38 7.55137L8.93799 6.11037L12.058 1.44437C12.313 1.06037 12.798 0.902371 13.23 1.06037C13.663 1.21737 13.933 1.65037 13.883 2.10737L13.114 9.20037H19C19.369 9.20037 19.708 9.40337 19.882 9.72837C20.056 10.0544 20.036 10.4494 19.831 10.7554L17.328 14.5004L15.887 13.0584L17.129 11.2004H14.028L11.193 8.36437ZM20.707 19.293L4.70701 3.29297C4.31601 2.90197 3.68401 2.90197 3.29301 3.29297C2.90201 3.68397 2.90201 4.31597 3.29301 4.70697L19.293 20.707C19.488 20.902 19.744 21 20 21C20.256 21 20.512 20.902 20.707 20.707C21.098 20.316 21.098 19.684 20.707 19.293ZM12.5449 18.0566L12.8069 15.6356L9.97191 12.7996H6.87091L8.11291 10.9416L6.67191 9.49957L4.16891 13.2446C3.96391 13.5506 3.94391 13.9456 4.11791 14.2716C4.29191 14.5966 4.63091 14.7996 4.99991 14.7996H10.8859L10.1169 21.8926C10.0669 22.3496 10.3369 22.7826 10.7699 22.9396C10.8819 22.9806 10.9969 22.9996 11.1109 22.9996C11.4379 22.9996 11.7529 22.8396 11.9419 22.5556L15.0619 17.8896L13.6199 16.4486L12.5449 18.0566Z" fill="#343C44"/>
</svg>
