<svg width="24" height="24" viewBox="0 0 24 24" fill="none" xmlns="http://www.w3.org/2000/svg">
<path fill-rule="evenodd" clip-rule="evenodd" d="M9.899 14.6037L15 18.1017V5.89865L9.899 9.39665C9.732 9.50965 9.535 9.57165 9.333 9.57165H5V14.4287H9.333C9.535 14.4287 9.732 14.4907 9.899 14.6037ZM15.435 3.17465C15.741 2.96465 16.138 2.94165 16.466 3.11565C16.794 3.28865 17 3.62865 17 3.99965V19.9997C17 20.3717 16.794 20.7117 16.466 20.8847C16.32 20.9617 16.16 20.9997 16 20.9997C15.802 20.9997 15.604 20.9417 15.435 20.8257L9.023 16.4287H4C3.448 16.4287 3 15.9817 3 15.4287V8.57165C3 8.01865 3.448 7.57165 4 7.57165H9.023L15.435 3.17465ZM19.3732 8.22102C19.8022 7.87602 20.4332 7.94302 20.7792 8.37302C22.4152 10.407 22.4152 13.593 20.7792 15.627C20.5812 15.872 20.2912 16 19.9992 16C19.7792 16 19.5582 15.928 19.3732 15.779C18.9432 15.433 18.8742 14.804 19.2202 14.373C20.2562 13.087 20.2562 10.913 19.2202 9.62702C18.8742 9.19602 18.9432 8.56702 19.3732 8.22102Z" fill="#343C44"/>
</svg>
