<svg width="24" height="24" viewBox="0 0 24 24" fill="none" xmlns="http://www.w3.org/2000/svg">
<path fill-rule="evenodd" clip-rule="evenodd" d="M7.0002 10.9993C7.0002 10.4473 7.4482 9.99927 8.0002 9.99927C8.5522 9.99927 9.0002 10.4473 9.0002 10.9993C9.0002 11.5513 8.5522 11.9993 8.0002 11.9993C7.4482 11.9993 7.0002 11.5513 7.0002 10.9993ZM12.0002 9.99927C11.4482 9.99927 11.0002 10.4473 11.0002 10.9993C11.0002 11.5513 11.4482 11.9993 12.0002 11.9993C12.5522 11.9993 13.0002 11.5513 13.0002 10.9993C13.0002 10.4473 12.5522 9.99927 12.0002 9.99927ZM16.0002 9.99927C15.4482 9.99927 15.0002 10.4473 15.0002 10.9993C15.0002 11.5513 15.4482 11.9993 16.0002 11.9993C16.5522 11.9993 17.0002 11.5513 17.0002 10.9993C17.0002 10.4473 16.5522 9.99927 16.0002 9.99927ZM19.8987 12.2942C19.3917 15.5482 16.7687 18.2472 13.5197 18.8562C11.9507 19.1522 10.3527 18.9832 8.90272 18.3692C8.49172 18.1952 8.06672 18.1072 7.64972 18.1072C7.45972 18.1072 7.27172 18.1252 7.08672 18.1622L4.27472 18.7242L4.83772 15.9072C4.95572 15.3222 4.88372 14.6962 4.63072 14.0972C4.01672 12.6472 3.84872 11.0502 4.14372 9.48018C4.75272 6.23118 7.45072 3.60818 10.7057 3.10118C13.2957 2.69818 15.8287 3.51418 17.6567 5.34218C19.4857 7.17118 20.3027 9.70518 19.8987 12.2942ZM19.0716 3.92817C16.7866 1.64417 13.6266 0.625171 10.3976 1.12417C6.3206 1.76017 2.9406 5.04417 2.1776 9.11117C1.8096 11.0692 2.0216 13.0632 2.7886 14.8762C2.8856 15.1072 2.9156 15.3222 2.8776 15.5152L2.0196 19.8032C1.9536 20.1312 2.0566 20.4702 2.2936 20.7062C2.4826 20.8962 2.7376 20.9992 3.0006 20.9992C3.0656 20.9992 3.1306 20.9932 3.1966 20.9802L7.4796 20.1232C7.7256 20.0762 7.9636 20.1452 8.1226 20.2112C9.9376 20.9782 11.9316 21.1892 13.8876 20.8222C17.9556 20.0592 21.2396 16.6792 21.8756 12.6022C22.3776 9.37517 21.3566 6.21317 19.0716 3.92817Z" fill="#343C44"/>
</svg>
