<svg width="24" height="24" viewBox="0 0 24 24" fill="none" xmlns="http://www.w3.org/2000/svg">
<path fill-rule="evenodd" clip-rule="evenodd" d="M17.328 14.5001L19.831 10.7561C20.036 10.4491 20.056 10.0551 19.882 9.72906C19.708 9.40306 19.369 9.20006 19 9.20006H13.114L13.883 2.10706C13.932 1.65006 13.663 1.21806 13.23 1.06106C12.797 0.90206 12.313 1.06106 12.057 1.44406L8.93799 6.11006L17.328 14.5001ZM6.67191 9.50006L4.16891 13.2441C3.96391 13.5511 3.94391 13.9451 4.11791 14.2711C4.29191 14.5971 4.63091 14.8001 4.99991 14.8001H10.8859L10.1169 21.8931C10.0679 22.3501 10.3369 22.7821 10.7699 22.9391C10.8819 22.9801 10.9969 23.0001 11.1109 23.0001C11.4379 23.0001 11.7529 22.8401 11.9429 22.5561L15.0619 17.8901L6.67191 9.50006ZM4.70701 3.29296L20.707 19.293C21.098 19.684 21.098 20.316 20.707 20.707C20.512 20.902 20.256 21 20 21C19.744 21 19.488 20.902 19.293 20.707L3.29301 4.70696C2.90201 4.31596 2.90201 3.68396 3.29301 3.29296C3.68401 2.90196 4.31601 2.90196 4.70701 3.29296Z" fill="#343C44"/>
</svg>
