<svg width="24" height="24" viewBox="0 0 24 24" fill="none" xmlns="http://www.w3.org/2000/svg">
<path fill-rule="evenodd" clip-rule="evenodd" d="M12.9344 11.9777H21.0834C21.6254 11.9777 22.0494 12.4497 21.9954 12.9887C21.4514 18.4147 16.5794 22.5667 10.8814 21.9367C6.29645 21.4307 2.56945 17.7037 2.06245 13.1187C1.43445 7.42065 5.58445 2.54765 11.0114 2.00465C11.5514 1.95065 12.0224 2.37365 12.0224 2.91565V11.0667C12.0224 11.5697 12.4304 11.9777 12.9344 11.9777ZM21.167 10.3332H14.5C14.04 10.3332 13.667 9.96115 13.667 9.50015V2.83315C13.667 2.37315 14.04 2.00015 14.5 2.00015C18.635 2.00015 22 5.36415 22 9.50015C22 9.96115 21.6269 10.3332 21.167 10.3332Z" fill="#343C44"/>
</svg>
