<svg width="24" height="24" viewBox="0 0 24 24" fill="none" xmlns="http://www.w3.org/2000/svg">
<path fill-rule="evenodd" clip-rule="evenodd" d="M8.34176 5.55276C8.51076 5.21376 8.85776 4.99976 9.23676 4.99976H14.7638C15.1428 4.99976 15.4888 5.21376 15.6578 5.55276L18.3818 10.9998H15.9998C15.4478 10.9998 14.9998 11.4478 14.9998 11.9998V13.9998C14.9998 14.5528 14.5518 14.9998 13.9998 14.9998H9.99976C9.44776 14.9998 8.99976 14.5528 8.99976 13.9998V11.9998C8.99976 11.4478 8.55176 10.9998 7.99976 10.9998H5.61776L8.34176 5.55276ZM20.7888 11.3418L17.4468 4.65776C16.9358 3.63576 15.9078 2.99976 14.7638 2.99976H9.23576C8.09176 2.99976 7.06476 3.63576 6.55276 4.65776L3.21076 11.3418C3.07276 11.6178 2.99976 11.9278 2.99976 12.2368V17.9998C2.99976 19.6548 4.34576 20.9998 5.99976 20.9998H17.9998C19.6548 20.9998 20.9998 19.6548 20.9998 17.9998V12.2368C20.9998 11.9278 20.9268 11.6178 20.7888 11.3418Z" fill="#343C44"/>
</svg>
