<svg width="24" height="24" viewBox="0 0 24 24" fill="none" xmlns="http://www.w3.org/2000/svg">
<path fill-rule="evenodd" clip-rule="evenodd" d="M9.40551 9.66956C10.0105 9.66956 10.3645 9.99456 10.3645 10.5226C10.3645 11.0886 9.98151 11.4086 9.11351 11.4086H8.26051V9.66956H9.40551ZM14.7648 11.1886C14.1388 11.1886 13.7268 11.6666 13.7268 12.2846V12.2936H15.7878V12.2846C15.7878 11.6616 15.3858 11.1886 14.7648 11.1886ZM9.48701 12.3038H8.26001V14.2378H9.21901C10.24 14.2378 10.657 13.9128 10.657 13.2938C10.657 12.6798 10.244 12.3038 9.48701 12.3038ZM17.025 13.0538H13.727V13.1858C13.727 13.9178 14.168 14.3818 14.818 14.3818C15.327 14.3818 15.686 14.1458 15.793 13.7538H16.977C16.856 14.5278 16.186 15.2968 14.808 15.2968C13.397 15.2968 12.475 14.4688 12.475 12.9908V12.5488C12.475 11.1338 13.401 10.2968 14.755 10.2968C16.157 10.2968 17.025 11.1928 17.025 12.5798V13.0538ZM13.25 9.70276H16.25V9.20276H13.25V9.70276ZM9.698 15.2028H6.975V8.70276H9.703C10.873 8.70276 11.64 9.30876 11.64 10.3038C11.64 11.0938 11.165 11.5708 10.518 11.7278V11.7838C11.304 11.8608 11.975 12.3948 11.975 13.3698C11.975 14.5328 11.026 15.2028 9.698 15.2028ZM12 1.99976C6.477 1.99976 2 6.47776 2 11.9998C2 17.5228 6.477 21.9998 12 21.9998C17.523 21.9998 22 17.5228 22 11.9998C22 6.47776 17.523 1.99976 12 1.99976Z" fill="#343C44"/>
</svg>
