<svg width="24" height="24" viewBox="0 0 24 24" fill="none" xmlns="http://www.w3.org/2000/svg">
<path fill-rule="evenodd" clip-rule="evenodd" d="M17.9655 6.72867L15.2715 4.03467L13.3235 5.98367L16.0185 8.67867L17.9655 6.72867ZM5.09038 17.9957C5.06038 17.9987 5.03038 17.9997 5.00038 17.9997C4.73638 17.9997 4.48138 17.8957 4.29238 17.7067C4.08338 17.4967 3.97738 17.2047 4.00338 16.9097L4.38238 12.7397C4.42438 12.2827 4.62638 11.8507 4.95238 11.5257L13.9484 2.52967C14.6504 1.82467 15.9234 1.85967 16.6644 2.59867L19.4024 5.33667L19.4034 5.33767C20.1684 6.10367 20.1994 7.32167 19.4714 8.05167L10.4744 17.0487C10.1494 17.3737 9.71838 17.5757 9.26038 17.6177L5.09038 17.9957ZM5 20H19C19.55 20 20 20.45 20 21C20 21.55 19.55 22 19 22H5C4.45 22 4 21.55 4 21C4 20.45 4.45 20 5 20Z" fill="#343C44"/>
</svg>
