<svg width="24" height="24" viewBox="0 0 24 24" fill="none" xmlns="http://www.w3.org/2000/svg">
<path fill-rule="evenodd" clip-rule="evenodd" d="M13.667 22C13.646 22 13.626 21.999 13.606 21.998C13.154 21.971 12.777 21.643 12.687 21.199L11.149 13.632C11.069 13.238 10.762 12.931 10.368 12.851L2.80104 11.312C2.35704 11.223 2.02904 10.846 2.00204 10.394C1.97504 9.94103 2.25404 9.52703 2.68404 9.38503L18.684 4.05203C19.043 3.93003 19.439 4.02403 19.707 4.29303C19.975 4.56103 20.068 4.95703 19.949 5.31603L14.615 21.316C14.479 21.727 14.095 22 13.667 22Z" fill="#343C44"/>
</svg>
