<svg width="24" height="24" viewBox="0 0 24 24" fill="none" xmlns="http://www.w3.org/2000/svg">
<path fill-rule="evenodd" clip-rule="evenodd" d="M3.5 11.0001C3.5 9.05915 4.438 7.20015 6.144 5.76615C6.566 5.40915 6.621 4.77815 6.266 4.35615C5.909 3.93415 5.279 3.87915 4.856 4.23415C2.692 6.05615 1.5 8.45915 1.5 11.0001C1.5 13.5411 2.692 15.9441 4.856 17.7661C5.044 17.9231 5.272 18.0001 5.499 18.0001C5.784 18.0001 6.067 17.8791 6.266 17.6441C6.621 17.2221 6.566 16.5911 6.144 16.2341C4.438 14.8001 3.5 12.9411 3.5 11.0001ZM12 8.00015C10.346 8.00015 9 9.34615 9 11.0001C9 12.3141 9.855 13.4221 11.035 13.8261C11.0311 13.8471 11.0255 13.8674 11.02 13.8875L11.02 13.8875L11.02 13.8876L11.02 13.8876C11.0099 13.9241 11 13.9602 11 14.0001V20.0001C11 20.5531 11.447 21.0001 12 21.0001C12.553 21.0001 13 20.5531 13 20.0001V14.0001C13 13.9602 12.9901 13.9241 12.98 13.8876L12.98 13.8876L12.98 13.8875L12.98 13.8875C12.9745 13.8674 12.9689 13.8471 12.965 13.8261C14.145 13.4221 15 12.3141 15 11.0001C15 9.34615 13.654 8.00015 12 8.00015ZM15.2357 6.35651C15.5897 5.93451 16.2207 5.87851 16.6437 6.23551C18.1637 7.51351 18.9997 9.20651 18.9997 11.0005C18.9997 12.7945 18.1637 14.4865 16.6437 15.7645C16.4567 15.9235 16.2277 16.0005 16.0007 16.0005C15.7157 16.0005 15.4327 15.8795 15.2357 15.6435C14.8787 15.2215 14.9337 14.5905 15.3567 14.2355C16.4157 13.3425 16.9997 12.1935 16.9997 11.0005C16.9997 9.80651 16.4157 8.65751 15.3567 7.76451C14.9337 7.40951 14.8787 6.77851 15.2357 6.35651ZM8.7646 6.35665C8.4106 5.93365 7.7806 5.87765 7.3566 6.23565C5.8366 7.51365 4.9996 9.20665 4.9996 11.0006C4.9996 12.7936 5.8366 14.4866 7.3566 15.7646C7.5436 15.9226 7.7726 16.0006 7.9986 16.0006C8.2846 16.0006 8.5676 15.8786 8.7646 15.6436C9.1206 15.2216 9.0666 14.5906 8.6436 14.2356C7.5836 13.3426 6.9996 12.1936 6.9996 11.0006C6.9996 9.80665 7.5836 8.65765 8.6436 7.76465C9.0666 7.40965 9.1206 6.77865 8.7646 6.35665ZM17.7344 4.35659C18.0904 3.93459 18.7194 3.88059 19.1434 4.23459C21.3074 6.05559 22.4994 8.45959 22.4994 11.0006C22.4994 13.5416 21.3074 15.9446 19.1434 17.7656C18.9564 17.9226 18.7274 18.0006 18.5004 18.0006C18.2154 18.0006 17.9324 17.8796 17.7344 17.6436C17.3784 17.2216 17.4334 16.5906 17.8564 16.2346C19.5614 14.7996 20.4994 12.9416 20.4994 11.0006C20.4994 9.05859 19.5614 7.20059 17.8564 5.76559C17.4334 5.40959 17.3784 4.77859 17.7344 4.35659Z" fill="#343C44"/>
</svg>
