<svg width="24" height="24" viewBox="0 0 24 24" fill="none" xmlns="http://www.w3.org/2000/svg">
<path fill-rule="evenodd" clip-rule="evenodd" d="M9.69824 14L10.4272 10H14.3022L13.5732 14H9.69824ZM20 14.0001H15.698L16.427 10.0001H20C20.55 10.0001 21 9.55006 21 9.00006C21 8.45006 20.55 8.00006 20 8.00006H16.79L17.484 4.18906C17.584 3.64106 17.202 3.11206 16.635 3.01606C16.068 2.91906 15.523 3.28906 15.423 3.83806L14.665 8.00006H10.79L11.484 4.18906C11.584 3.64106 11.202 3.11206 10.635 3.01606C10.068 2.91906 9.523 3.28906 9.423 3.83806L8.665 8.00006H4C3.45 8.00006 3 8.45006 3 9.00006C3 9.55006 3.45 10.0001 4 10.0001H8.302L7.573 14.0001H4C3.45 14.0001 3 14.4501 3 15.0001C3 15.5501 3.45 16.0001 4 16.0001H7.209L6.515 19.8111C6.416 20.3591 6.798 20.8881 7.365 20.9841C7.931 21.0811 8.477 20.7111 8.576 20.1621L9.334 16.0001H13.209L12.515 19.8111C12.416 20.3591 12.798 20.8881 13.365 20.9841C13.931 21.0811 14.477 20.7111 14.576 20.1621L15.334 16.0001H20C20.55 16.0001 21 15.5501 21 15.0001C21 14.4501 20.55 14.0001 20 14.0001Z" fill="#343C44"/>
</svg>
