<svg width="24" height="24" viewBox="0 0 24 24" fill="none" xmlns="http://www.w3.org/2000/svg">
<path fill-rule="evenodd" clip-rule="evenodd" d="M8.30951 10.1387L11.3095 7.2767C11.3545 7.2337 11.4105 7.2127 11.4605 7.1797C11.5145 7.1437 11.5625 7.1007 11.6225 7.0757C11.7435 7.0267 11.8715 6.9997 11.9995 6.9997C12.1305 6.9997 12.2605 7.0267 12.3825 7.0767C12.5045 7.1277 12.6155 7.2007 12.7075 7.2937L15.7065 10.2927C16.0975 10.6837 16.0975 11.3167 15.7065 11.7067C15.3165 12.0977 14.6835 12.0977 14.2925 11.7067L12.9995 10.4137V15.9997C12.9995 16.5527 12.5525 16.9997 11.9995 16.9997C11.4475 16.9997 10.9995 16.5527 10.9995 15.9997V10.3367L9.69051 11.5857C9.29051 11.9667 8.65851 11.9527 8.27651 11.5527C7.89451 11.1527 7.91051 10.5197 8.30951 10.1387ZM11.9995 21.9997C17.5145 21.9997 21.9995 17.5137 21.9995 11.9997C21.9995 6.48569 17.5145 1.99969 11.9995 1.99969C6.48551 1.99969 1.99951 6.48569 1.99951 11.9997C1.99951 17.5137 6.48551 21.9997 11.9995 21.9997Z" fill="#343C44"/>
</svg>
