<svg width="24" height="24" viewBox="0 0 24 24" fill="none" xmlns="http://www.w3.org/2000/svg">
<path fill-rule="evenodd" clip-rule="evenodd" d="M16.4155 8.99901L19.0005 9.00001C19.5525 9.00001 20.0005 9.44801 20.0005 10.001C19.9995 10.553 19.5515 11 19.0005 11H18.9995L14.0245 10.997C13.4745 10.997 13.0275 10.552 13.0245 10.002L13.0005 5.00501C12.9975 4.45301 13.4425 4.00301 13.9955 4.00001H14.0005C14.5505 4.00001 14.9975 4.44401 15.0005 4.99501L15.0125 7.57301L18.2925 4.29301C18.6835 3.90201 19.3165 3.90201 19.7075 4.29301C20.0975 4.68401 20.0975 5.31601 19.7075 5.70701L16.4155 8.99901ZM5.00474 13.0004L10.0017 13.0254C10.5517 13.0284 10.9967 13.4744 10.9967 14.0244L11.0007 18.9994C11.0007 19.5514 10.5527 20.0004 10.0007 20.0004C9.44774 20.0004 9.00074 19.5524 9.00074 19.0014L8.99874 16.4164L5.70774 19.7074C5.51174 19.9024 5.25574 20.0004 5.00074 20.0004C4.74474 20.0004 4.48874 19.9024 4.29374 19.7074C3.90274 19.3164 3.90274 18.6834 4.29374 18.2934L7.57274 15.0134L4.99574 15.0004C4.44274 14.9974 3.99774 14.5464 4.00074 13.9954C4.00274 13.4444 4.45074 13.0004 5.00074 13.0004H5.00474Z" fill="#343C44"/>
</svg>
