<svg width="24" height="24" viewBox="0 0 24 24" fill="none" xmlns="http://www.w3.org/2000/svg">
<path fill-rule="evenodd" clip-rule="evenodd" d="M16.6161 6.21296C16.1821 5.87096 15.5541 5.94896 15.2131 6.38396L8.15809 15.392L4.77909 11.195C4.43109 10.766 3.80309 10.696 3.37309 11.043C2.94209 11.39 2.87509 12.02 3.22009 12.449L7.38909 17.627C7.58009 17.863 7.86609 18 8.16909 18H8.17609C8.48009 17.998 8.76809 17.857 8.95609 17.616L16.7871 7.61596C17.1281 7.18196 17.0521 6.55296 16.6161 6.21296ZM21.6161 6.21296C21.1811 5.87096 20.5541 5.94896 20.2131 6.38396L13.1581 15.392L12.5541 14.643L11.2891 16.26L12.3891 17.627C12.5801 17.863 12.8661 18 13.1691 18H13.1761C13.4801 17.998 13.7681 17.857 13.9561 17.616L21.7871 7.61596C22.1281 7.18196 22.0521 6.55296 21.6161 6.21296ZM9.9799 11.4446L8.7129 13.0606L8.2209 12.4496C7.8749 12.0196 7.9419 11.3896 8.3729 11.0426C8.8039 10.6966 9.4329 10.7656 9.7789 11.1956L9.9799 11.4446Z" fill="#343C44"/>
</svg>
