<svg width="24" height="24" viewBox="0 0 24 24" fill="none" xmlns="http://www.w3.org/2000/svg">
<path fill-rule="evenodd" clip-rule="evenodd" d="M16.7072 13.293C17.0982 13.684 17.0982 14.316 16.7072 14.707C16.5122 14.902 16.2562 15 16.0002 15C15.7442 15 15.4882 14.902 15.2933 14.707L14.0002 13.414L12.7072 14.707C12.5122 14.902 12.2563 15 12.0002 15C11.7443 15 11.4882 14.902 11.2933 14.707C10.9023 14.316 10.9023 13.684 11.2933 13.293L12.5863 12L11.2933 10.707C10.9023 10.316 10.9023 9.68401 11.2933 9.29301C11.6842 8.90201 12.3162 8.90201 12.7072 9.29301L14.0002 10.586L15.2933 9.29301C15.6842 8.90201 16.3162 8.90201 16.7072 9.29301C17.0982 9.68401 17.0982 10.316 16.7072 10.707L15.4142 12L16.7072 13.293ZM20.1411 4H10.3701C9.62206 4 8.90507 4.277 8.35207 4.781C8.31307 4.815 8.27807 4.854 8.24607 4.894L2.22207 12.373C1.89007 12.785 1.93607 13.384 2.32707 13.74L8.35207 19.219C8.90507 19.723 9.62206 20 10.3701 20H20.1411C21.1661 20 22.0001 19.185 22.0001 18.182V5.818C22.0001 4.815 21.1661 4 20.1411 4Z" fill="#343C44"/>
</svg>
