<svg width="24" height="24" viewBox="0 0 24 24" fill="none" xmlns="http://www.w3.org/2000/svg">
<path fill-rule="evenodd" clip-rule="evenodd" d="M14.0002 18.3413C14.0002 19.2403 13.0842 20.0003 12.0002 20.0003C10.9162 20.0003 10.0002 19.2403 10.0002 18.3413V18.0003H14.0002V18.3413ZM20.5213 15.2073L18.7203 13.4043V8.93626C18.7203 5.45526 16.2183 2.49926 12.8993 2.05926C10.9783 1.80426 9.03834 2.39026 7.58334 3.66626C6.11934 4.94826 5.28034 6.79326 5.28034 8.72726L5.27934 13.4043L3.47934 15.2083C3.01034 15.6773 2.87134 16.3773 3.12534 16.9903C3.38034 17.6033 3.97334 18.0003 4.63734 18.0003H8.00034V18.3413C8.00034 20.3593 9.79434 22.0003 12.0003 22.0003C14.2063 22.0003 16.0003 20.3593 16.0003 18.3413V18.0003H19.3623C20.0263 18.0003 20.6193 17.6043 20.8733 16.9903C21.1283 16.3773 20.9893 15.6773 20.5213 15.2073Z" fill="#343C44"/>
</svg>
