<svg width="24" height="24" viewBox="0 0 24 24" fill="none" xmlns="http://www.w3.org/2000/svg">
<path fill-rule="evenodd" clip-rule="evenodd" d="M4.962 15.7999C5.598 15.9609 6.287 16.0729 6.988 16.0729C8.068 16.0729 9.171 15.8099 10.125 15.0629C11.841 13.7209 11.841 12.0039 11.841 10.6239C11.841 9.73288 11.841 8.96288 12.213 8.27988C12.413 7.91388 12.839 7.65988 13.332 7.36488C13.634 7.18488 13.946 6.99788 14.247 6.76288C14.89 6.25988 15.368 5.61188 15.664 4.89688C17.064 5.62088 18.224 6.74388 18.989 8.11888C17.562 8.31788 15.534 8.78488 15.126 10.6529C15.018 11.1469 15.001 11.6119 14.987 12.0229C14.967 12.6059 14.95 13.0669 14.7 13.4879L14.601 13.6559C13.954 14.7389 13.222 15.9679 14.209 17.6849C14.328 17.8929 14.461 18.0929 14.592 18.2909C14.936 18.8079 15.105 19.0929 15.106 19.3719C14.15 19.7769 13.101 19.9999 12 19.9999C8.963 19.9999 6.316 18.2989 4.962 15.7999ZM12 1.99988C6.486 1.99988 2 6.48688 2 11.9999C2 17.5139 6.486 21.9999 12 21.9999C17.514 21.9999 22 17.5139 22 11.9999C22 6.48688 17.514 1.99988 12 1.99988Z" fill="#343C44"/>
</svg>
