<svg width="24" height="24" viewBox="0 0 24 24" fill="none" xmlns="http://www.w3.org/2000/svg">
<path fill-rule="evenodd" clip-rule="evenodd" d="M18.4434 21H12.8184V15.272H19.3634V20.091C19.3634 20.593 18.9514 21 18.4434 21ZM4.63672 20.0905V15.2725H11.1817V21.0005H5.55672C5.04872 21.0005 4.63672 20.5925 4.63672 20.0905ZM20.0995 7.09076H18.2575C18.4365 6.71776 18.5455 6.30476 18.5455 5.86276C18.5455 4.28476 17.2605 2.99976 15.6815 2.99976C13.8005 2.99976 12.6605 4.31976 11.9995 5.56876C11.3385 4.31976 10.1995 2.99976 8.31851 2.99976C6.73951 2.99976 5.45351 4.28476 5.45351 5.86276C5.45351 6.30476 5.56351 6.71776 5.74251 7.09076H3.90051C3.40351 7.09076 2.99951 7.67676 2.99951 8.40076V12.3268C2.99951 13.0498 3.40351 13.6368 3.90051 13.6368H4.63651H11.1815V7.09076H12.8185V13.6368H19.3635H20.0995C20.5965 13.6368 20.9995 13.0498 20.9995 12.3268V8.40076C20.9995 7.67676 20.5965 7.09076 20.0995 7.09076ZM15.6815 7.09076H13.1005C13.4865 6.07476 14.2805 4.63676 15.6815 4.63676C16.3585 4.63676 16.9095 5.18676 16.9095 5.86276C16.9095 6.53976 16.3585 7.09076 15.6815 7.09076ZM8.31833 7.09072C7.64133 7.09072 7.09033 6.53972 7.09033 5.86272C7.09033 5.18672 7.64133 4.63672 8.31833 4.63672C9.71933 4.63672 10.5133 6.07472 10.8993 7.09072H8.31833Z" fill="#343C44"/>
</svg>
