<svg width="24" height="24" viewBox="0 0 24 24" fill="none" xmlns="http://www.w3.org/2000/svg">
<path fill-rule="evenodd" clip-rule="evenodd" d="M7 14.1846V2.99963C7 2.44763 6.553 1.99963 6 1.99963C5.447 1.99963 5 2.44763 5 2.99963V14.1846C3.839 14.5986 3 15.6986 3 16.9996C3 18.3016 3.839 19.4016 5 19.8156V20.9996C5 21.5526 5.447 21.9996 6 21.9996C6.553 21.9996 7 21.5526 7 20.9996V19.8156C8.161 19.4016 9 18.3016 9 16.9996C9 15.6986 8.161 14.5986 7 14.1846ZM21 13.0001C21 11.6981 20.161 10.5991 19 10.1851V3.00013C19 2.44713 18.553 2.00013 18 2.00013C17.447 2.00013 17 2.44713 17 3.00013V10.1851C15.839 10.5991 15 11.6981 15 13.0001C15 14.3021 15.839 15.4011 17 15.8151V21.0001C17 21.5531 17.447 22.0001 18 22.0001C18.553 22.0001 19 21.5531 19 21.0001V15.8151C20.161 15.4011 21 14.3021 21 13.0001ZM12 2.00013C13.654 2.00013 15 3.34613 15 5.00013C15 6.30213 14.161 7.40113 13 7.81513V21.0001C13 21.5531 12.553 22.0001 12 22.0001C11.447 22.0001 11 21.5531 11 21.0001V7.81513C9.839 7.40113 9 6.30213 9 5.00013C9 3.34613 10.346 2.00013 12 2.00013Z" fill="#343C44"/>
</svg>
