<svg width="24" height="24" viewBox="0 0 24 24" fill="none" xmlns="http://www.w3.org/2000/svg">
<path fill-rule="evenodd" clip-rule="evenodd" d="M15.4342 3.17523C15.7402 2.96523 16.1372 2.94123 16.4662 3.11523C16.7942 3.28823 17.0002 3.62923 17.0002 4.00023V20.0002C17.0002 20.3712 16.7942 20.7122 16.4662 20.8852C16.3202 20.9622 16.1592 21.0002 16.0002 21.0002C15.8012 21.0002 15.6042 20.9412 15.4342 20.8252L9.02324 16.4282H4.00024C3.44724 16.4282 3.00024 15.9812 3.00024 15.4282V8.57123C3.00024 8.01823 3.44724 7.57123 4.00024 7.57123H9.02324L15.4342 3.17523ZM19.3732 8.22103C19.8022 7.87603 20.4332 7.94303 20.7792 8.37303C22.4152 10.407 22.4152 13.593 20.7792 15.627C20.5812 15.872 20.2912 16 19.9992 16C19.7792 16 19.5582 15.928 19.3732 15.779C18.9432 15.433 18.8742 14.804 19.2202 14.373C20.2562 13.087 20.2562 10.913 19.2202 9.62703C18.8742 9.19603 18.9432 8.56703 19.3732 8.22103Z" fill="#343C44"/>
</svg>
