<svg width="24" height="24" viewBox="0 0 24 24" fill="none" xmlns="http://www.w3.org/2000/svg">
<path fill-rule="evenodd" clip-rule="evenodd" d="M19 18.0345C19 18.5865 18.551 19.0345 18 19.0345H6C5.449 19.0345 5 18.5865 5 18.0345V11.0345H19V18.0345ZM8 6.03455C8.552 6.03455 9 6.48155 9 7.03455C9 7.58755 8.552 8.03455 8 8.03455C7.448 8.03455 7 7.58755 7 7.03455C7 6.48155 7.448 6.03455 8 6.03455ZM12 6.03455C12.552 6.03455 13 6.48155 13 7.03455C13 7.58755 12.552 8.03455 12 8.03455C11.448 8.03455 11 7.58755 11 7.03455C11 6.48155 11.448 6.03455 12 6.03455ZM18 3.03455H6C4.346 3.03455 3 4.38055 3 6.03455V9.03455V11.0345V18.0345C3 19.6885 4.346 21.0345 6 21.0345H18C19.654 21.0345 21 19.6885 21 18.0345V11.0345V9.03455V6.03455C21 4.38055 19.654 3.03455 18 3.03455Z" fill="#343C44"/>
</svg>
