<svg width="24" height="24" viewBox="0 0 24 24" fill="none" xmlns="http://www.w3.org/2000/svg">
<path fill-rule="evenodd" clip-rule="evenodd" d="M11.527 3.89973C13.709 1.71273 17.23 1.31773 19.662 3.21973C22.575 5.49773 22.766 9.74273 20.235 12.2797L18.812 13.7047C18.419 14.0987 17.783 14.0987 17.39 13.7047C16.997 13.3117 16.997 12.6727 17.39 12.2797L18.812 10.8537C20.467 9.19673 20.377 6.44173 18.54 4.90373C16.913 3.54073 14.471 3.80073 12.972 5.30273L11.699 6.57773C11.307 6.97173 10.669 6.97173 10.277 6.57773C9.88404 6.18473 9.88004 5.54973 10.454 4.97473L11.527 3.89973ZM13.2933 9.29301L9.29325 13.293C8.90225 13.684 8.90225 14.316 9.29325 14.707C9.48825 14.902 9.74425 15 10.0002 15C10.2563 15 10.5122 14.902 10.7072 14.707L14.7073 10.707C15.0982 10.316 15.0982 9.68401 14.7073 9.29301C14.3162 8.90201 13.6842 8.90201 13.2933 9.29301ZM12.2804 17.3965L11.0064 18.6675C9.50542 20.1645 7.05842 20.4225 5.43042 19.0655C3.59142 17.5335 3.50042 14.7875 5.15742 13.1345L6.58242 11.7145C6.97542 11.3225 6.97542 10.6865 6.58242 10.2935C6.18942 9.90253 5.55142 9.90253 5.15742 10.2935L3.88242 11.5665C1.71042 13.7325 1.32942 17.2165 3.20742 19.6405C5.47842 22.5735 9.73842 22.7715 12.2804 20.2375L13.7054 18.8175C14.0984 18.4245 14.0984 17.7895 13.7054 17.3965C13.3114 17.0035 12.6744 17.0035 12.2804 17.3965Z" fill="#343C44"/>
</svg>
