<svg width="24" height="24" viewBox="0 0 24 24" fill="none" xmlns="http://www.w3.org/2000/svg">
<path fill-rule="evenodd" clip-rule="evenodd" d="M20.2735 8.66663C19.9074 6.11563 17.8845 4.09263 15.3335 3.72663V8.66663H20.2735ZM21.1665 10.3326H14.5005C14.0405 10.3326 13.6665 9.96063 13.6665 9.49963V2.83263C13.6665 2.37263 14.0405 1.99963 14.5005 1.99963C18.6355 1.99963 22.0005 5.36463 22.0005 9.49963C22.0005 9.96063 21.6264 10.3326 21.1665 10.3326ZM12.9344 11.9776H21.0834C21.6254 11.9776 22.0494 12.4496 21.9954 12.9886C21.4514 18.4146 16.5794 22.5666 10.8814 21.9366C6.29645 21.4306 2.56945 17.7036 2.06245 13.1186C1.43445 7.42063 5.58445 2.54763 11.0114 2.00463C11.5514 1.95063 12.0224 2.37363 12.0224 2.91563V11.0666C12.0224 11.5696 12.4304 11.9776 12.9344 11.9776Z" fill="#343C44"/>
</svg>
