<svg width="24" height="24" viewBox="0 0 24 24" fill="none" xmlns="http://www.w3.org/2000/svg">
<path fill-rule="evenodd" clip-rule="evenodd" d="M14.9999 3.99994V12.1719L9.0259 6.19794L13.4349 3.17494C13.7399 2.96494 14.1369 2.94194 14.4659 3.11494C14.7939 3.28794 14.9999 3.62894 14.9999 3.99994ZM20.9999 12.0001C20.9999 13.5991 20.3699 15.1211 19.2219 16.3941L20.6369 17.8091C22.1629 16.1551 22.9999 14.1371 22.9999 12.0001C22.9999 9.43114 21.8059 7.02514 19.6379 5.22914C19.2119 4.87814 18.5819 4.93714 18.2299 5.36214C17.8769 5.78714 17.9369 6.41814 18.3619 6.77114C20.0629 8.18014 20.9999 10.0361 20.9999 12.0001ZM16.9105 14.0821L18.3485 15.5211C19.9065 13.4831 19.8885 10.3741 18.2795 8.37314C17.9325 7.94314 17.3035 7.87614 16.8725 8.22114C16.4425 8.56714 16.3745 9.19614 16.7205 9.62714C17.6835 10.8231 17.7385 12.7781 16.9105 14.0821ZM4.743 7.57144H2C1.448 7.57144 1 8.01844 1 8.57144V15.4284C1 15.9814 1.448 16.4284 2 16.4284H7.023L13.434 20.8254C13.604 20.9414 13.802 21.0004 14 21.0004C14.16 21.0004 14.32 20.9624 14.466 20.8844C14.794 20.7124 15 20.3714 15 20.0004V17.8284L4.743 7.57144ZM3.29301 3.29301C3.68401 2.90201 4.31601 2.90201 4.70701 3.29301L20.707 19.293C21.098 19.684 21.098 20.316 20.707 20.707C20.512 20.902 20.256 21 20 21C19.744 21 19.488 20.902 19.293 20.707L3.29301 4.70701C2.90201 4.31601 2.90201 3.68401 3.29301 3.29301Z" fill="#343C44"/>
</svg>
