<svg width="24" height="24" viewBox="0 0 24 24" fill="none" xmlns="http://www.w3.org/2000/svg">
<path fill-rule="evenodd" clip-rule="evenodd" d="M5.61816 11L8.34216 5.553C8.51216 5.212 8.85516 5 9.23616 5H14.7642C15.1452 5 15.4882 5.212 15.6582 5.553L18.3822 11H5.61816ZM16 17H12C11.45 17 11 16.55 11 16C11 15.45 11.45 15 12 15H16C16.55 15 17 15.45 17 16C17 16.55 16.55 17 16 17ZM8 17C7.45 17 7 16.55 7 16C7 15.45 7.45 15 8 15C8.55 15 9 15.45 9 16C9 16.55 8.55 17 8 17ZM20.789 11.342L17.447 4.658C16.935 3.636 15.908 3 14.764 3H9.236C8.092 3 7.064 3.636 6.553 4.658L3.211 11.342C3.073 11.618 3 11.928 3 12.236V18C3 19.654 4.346 21 6 21H18C19.654 21 21 19.654 21 18V12.236C21 11.928 20.927 11.618 20.789 11.342Z" fill="#343C44"/>
</svg>
