<svg width="24" height="24" viewBox="0 0 24 24" fill="none" xmlns="http://www.w3.org/2000/svg">
<path fill-rule="evenodd" clip-rule="evenodd" d="M12 10.5029L20.512 6.92488C20.366 6.77588 20.201 6.64288 20.001 6.54988L12.801 3.17588C12.296 2.94088 11.704 2.94088 11.199 3.17588L3.99905 6.54988C3.79905 6.64288 3.63405 6.77588 3.48805 6.92488L12 10.5029ZM11.25 11.8271L3.00005 8.35908V16.0881C2.99505 16.7291 3.37905 17.3171 3.99005 17.6061L11.19 20.9791C11.1998 20.9837 11.21 20.9867 11.2203 20.9898L11.2204 20.9898C11.2303 20.9927 11.2403 20.9957 11.25 21.0001V11.8271ZM12.75 20.9971V11.8271L21 8.35908V16.0971C21 16.7361 20.613 17.3211 20.001 17.6061L12.801 20.9791C12.792 20.9836 12.7823 20.9865 12.7725 20.9895C12.765 20.9918 12.7574 20.994 12.75 20.9971Z" fill="#343C44"/>
</svg>
