<svg width="24" height="24" viewBox="0 0 24 24" fill="none" xmlns="http://www.w3.org/2000/svg">
<path fill-rule="evenodd" clip-rule="evenodd" d="M12.2958 21.9999C12.2638 21.9999 12.2328 21.9999 12.1998 21.9989C9.4058 21.9749 6.79779 20.8539 4.85579 18.8459C1.17879 15.0409 1.06379 8.74394 4.59879 4.80894C5.69979 3.58194 7.0438 2.65894 8.59179 2.06594C8.95679 1.92394 9.3718 2.01194 9.65079 2.28794C9.9308 2.56294 10.0238 2.97594 9.88879 3.34394C8.77079 6.39894 9.53179 9.85494 11.8298 12.1479C14.1268 14.4409 17.5928 15.2019 20.6578 14.0859C21.0258 13.9499 21.4388 14.0459 21.7128 14.3239C21.9878 14.6039 22.0738 15.0189 21.9338 15.3839C21.4098 16.7469 20.6238 17.9569 19.5978 18.9799C17.6448 20.9299 15.0538 21.9999 12.2958 21.9999Z" fill="#343C44"/>
</svg>
