<svg width="24" height="24" viewBox="0 0 24 24" fill="none" xmlns="http://www.w3.org/2000/svg">
<path fill-rule="evenodd" clip-rule="evenodd" d="M21.7505 15.9088C21.8325 16.1438 21.8955 16.3888 21.9355 16.6388C21.9775 16.8868 21.9995 17.1418 21.9995 17.4008C21.9995 19.9368 19.9365 21.9998 17.4005 21.9998C8.90851 21.9998 1.99951 15.0918 1.99951 6.59976C1.99951 4.06376 4.06351 1.99976 6.59951 1.99976C6.86051 1.99976 7.11651 2.02276 7.36551 2.06576C7.60851 2.10476 7.85451 2.16576 8.09151 2.24876C8.41651 2.36176 8.66151 2.63376 8.73851 2.96976L10.1075 8.93376C10.1825 9.26176 10.0875 9.60676 9.85451 9.84976C9.7177 9.99256 9.71352 9.99475 8.47963 10.6421L8.47451 10.6448C9.46551 12.8068 11.2145 14.5528 13.3545 15.5278C14.0036 14.2865 14.0075 14.2828 14.1499 14.1463L14.1505 14.1458C14.3935 13.9118 14.7375 13.8198 15.0665 13.8928L21.0305 15.2618C21.3665 15.3388 21.6385 15.5828 21.7505 15.9088ZM17.268 8.69825C16.864 9.10025 16.205 9.10025 15.802 8.69825C15.4 8.29525 15.4 7.63625 15.802 7.23225L16.535 6.50025L15.802 5.76725C15.4 5.36425 15.4 4.70525 15.802 4.30225C16.205 3.89925 16.864 3.89925 17.268 4.30225L18 5.03525L18.733 4.30225C19.136 3.89925 19.795 3.89925 20.198 4.30225C20.601 4.70525 20.601 5.36425 20.198 5.76725L19.465 6.50025L20.198 7.23225C20.601 7.63625 20.601 8.29525 20.198 8.69825C19.795 9.10025 19.136 9.10025 18.733 8.69825L18 7.96525L17.268 8.69825Z" fill="#343C44"/>
</svg>
