<svg width="24" height="24" viewBox="0 0 24 24" fill="none" xmlns="http://www.w3.org/2000/svg">
<path fill-rule="evenodd" clip-rule="evenodd" d="M15.5787 12.751C15.8397 12.22 15.9997 11.631 15.9997 11V6C15.9997 3.794 14.2057 2 11.9997 2C10.0517 2 8.42968 3.401 8.07568 5.248L15.5787 12.751ZM18.9995 11C18.9995 10.448 18.5525 10 17.9995 10C17.4465 10 16.9995 10.448 16.9995 11C16.9995 11.909 16.7375 12.75 16.3115 13.484L17.7745 14.947C18.5465 13.823 18.9995 12.464 18.9995 11ZM12.0853 14.9918C12.0574 14.9959 12.0293 15 12 15C9.794 15 8 13.206 8 11V10.828L12.156 14.984C12.1322 14.9849 12.1089 14.9883 12.0853 14.9918ZM20.7068 19.293L4.70676 3.293C4.31576 2.902 3.68376 2.902 3.29276 3.293C2.90176 3.684 2.90176 4.316 3.29276 4.707L19.2928 20.707C19.4878 20.902 19.7438 21 19.9998 21C20.2558 21 20.5118 20.902 20.7068 20.707C21.0978 20.316 21.0978 19.684 20.7068 19.293ZM13 20H15C15.55 20 16 20.45 16 21C16 21.55 15.55 22 15 22H9C8.45 22 8 21.55 8 21C8 20.45 8.45 20 9 20H11V17.92C7.613 17.432 5 14.52 5 11C5 10.448 5.447 10 6 10C6.553 10 7 10.448 7 11C7 13.757 9.243 16 12 16C12.362 16 12.714 15.957 13.055 15.883L14.648 17.476C14.127 17.69 13.573 17.836 13 17.919V20Z" fill="#343C44"/>
</svg>
