<svg width="24" height="24" viewBox="0 0 24 24" fill="none" xmlns="http://www.w3.org/2000/svg">
<path fill-rule="evenodd" clip-rule="evenodd" d="M9.00278 11.0059C8.45078 11.0059 8.00478 11.4539 8.00578 12.0059C8.00578 12.5569 8.45378 13.0039 9.00578 13.0029C9.55678 13.0019 10.0038 12.5539 10.0028 12.0029C10.0018 11.4509 9.55378 11.0049 9.00278 11.0059ZM9.00757 14.9999C7.35557 15.0019 6.00957 13.6599 6.00757 12.0079C6.00557 10.3549 7.34757 9.00994 8.99957 9.00794C10.6526 9.00594 11.9976 10.3479 11.9996 11.9999C12.0016 13.6519 10.6596 14.9979 9.00757 14.9999ZM14.9867 5.00599L8.99368 5.01399C5.14068 5.01899 2.00768 8.15899 2.01368 12.014C2.01868 15.867 5.15868 19 9.01368 18.994L15.0057 18.986C18.8597 18.981 21.9917 15.841 21.9867 11.986C21.9817 8.13299 18.8407 4.99999 14.9867 5.00599Z" fill="#343C44"/>
</svg>
