<svg width="24" height="24" viewBox="0 0 24 24" fill="none" xmlns="http://www.w3.org/2000/svg">
<path fill-rule="evenodd" clip-rule="evenodd" d="M4.00002 12C4.00002 10.154 4.63502 8.458 5.68802 7.103L16.897 18.312C15.542 19.366 13.846 20 12 20C7.58902 20 4.00002 16.411 4.00002 12ZM19.9999 12C19.9999 13.846 19.3649 15.542 18.3119 16.897L7.10286 5.688C8.45786 4.634 10.1539 4 11.9999 4C16.4109 4 19.9999 7.589 19.9999 12ZM12 2C6.486 2 2 6.486 2 12C2 17.514 6.486 22 12 22C17.514 22 22 17.514 22 12C22 6.486 17.514 2 12 2Z" fill="#343C44"/>
<mask id="mask0_17_4910" style="mask-type:luminance" maskUnits="userSpaceOnUse" x="2" y="2" width="20" height="20">
<path fill-rule="evenodd" clip-rule="evenodd" d="M4.00002 12C4.00002 10.154 4.63502 8.458 5.68802 7.103L16.897 18.312C15.542 19.366 13.846 20 12 20C7.58902 20 4.00002 16.411 4.00002 12ZM19.9999 12C19.9999 13.846 19.3649 15.542 18.3119 16.897L7.10286 5.688C8.45786 4.634 10.1539 4 11.9999 4C16.4109 4 19.9999 7.589 19.9999 12ZM12 2C6.486 2 2 6.486 2 12C2 17.514 6.486 22 12 22C17.514 22 22 17.514 22 12C22 6.486 17.514 2 12 2Z" fill="white"/>
</mask>
<g mask="url(#mask0_17_4910)">
<rect width="24" height="24" fill="#343C44"/>
</g>
</svg>
