<svg width="24" height="24" viewBox="0 0 24 24" fill="none" xmlns="http://www.w3.org/2000/svg">
<path fill-rule="evenodd" clip-rule="evenodd" d="M4.99978 11C4.99978 7.691 7.69078 5 10.9998 5C14.3088 5 16.9998 7.691 16.9998 11C16.9998 14.309 14.3088 17 10.9998 17C7.69078 17 4.99978 14.309 4.99978 11ZM20.7068 19.293L17.3118 15.897C18.3648 14.543 18.9998 12.846 18.9998 11C18.9998 6.589 15.4108 3 10.9998 3C6.58876 3 2.99976 6.589 2.99976 11C2.99976 15.411 6.58876 19 10.9998 19C12.8458 19 14.5428 18.365 15.8968 17.312L19.2928 20.707C19.4878 20.902 19.7438 21 19.9998 21C20.2558 21 20.5118 20.902 20.7068 20.707C21.0978 20.316 21.0978 19.684 20.7068 19.293Z" fill="#343C44"/>
</svg>
