<svg width="24" height="24" viewBox="0 0 24 24" fill="none" xmlns="http://www.w3.org/2000/svg">
<path fill-rule="evenodd" clip-rule="evenodd" d="M13 8.00073C13 8.55273 12.552 9.00073 12 9.00073C11.448 9.00073 11 8.55273 11 8.00073C11 7.44873 11.448 7.00073 12 7.00073C12.552 7.00073 13 7.44873 13 8.00073ZM10.5 15.5007C10.5 14.6737 11.173 14.0007 12 14.0007C12.827 14.0007 13.5 14.6737 13.5 15.5007C13.5 16.3277 12.827 17.0007 12 17.0007C11.173 17.0007 10.5 16.3277 10.5 15.5007ZM12 19.0007C10.07 19.0007 8.5 17.4307 8.5 15.5007C8.5 13.5707 10.07 12.0007 12 12.0007C13.93 12.0007 15.5 13.5707 15.5 15.5007C15.5 17.4307 13.93 19.0007 12 19.0007ZM12 5.00073C13.654 5.00073 15 6.34673 15 8.00073C15 9.65473 13.654 11.0007 12 11.0007C10.346 11.0007 9 9.65473 9 8.00073C9 6.34673 10.346 5.00073 12 5.00073ZM17 2.00073H7C5.346 2.00073 4 3.34673 4 5.00073V19.0007C4 20.6547 5.346 22.0007 7 22.0007H17C18.654 22.0007 20 20.6547 20 19.0007V5.00073C20 3.34673 18.654 2.00073 17 2.00073Z" fill="#343C44"/>
</svg>
