<svg width="24" height="24" viewBox="0 0 24 24" fill="none" xmlns="http://www.w3.org/2000/svg">
<path fill-rule="evenodd" clip-rule="evenodd" d="M10 4.32763C10 4.17263 10.214 3.99963 10.5 3.99963H13.5C13.786 3.99963 14 4.17263 14 4.32763V5.99963H10V4.32763ZM21 5.99963H20H16V4.32763C16 3.04363 14.879 1.99963 13.5 1.99963H10.5C9.121 1.99963 8 3.04363 8 4.32763V5.99963H4H3C2.45 5.99963 2 6.45063 2 6.99963C2 7.54963 2.45 7.99963 3 7.99963H4V18.9996C4 20.6546 5.346 21.9996 7 21.9996H17C18.654 21.9996 20 20.6546 20 18.9996V7.99963H21C21.55 7.99963 22 7.54963 22 6.99963C22 6.45063 21.55 5.99963 21 5.99963Z" fill="#343C44"/>
</svg>
