<svg width="24" height="24" viewBox="0 0 24 24" fill="none" xmlns="http://www.w3.org/2000/svg">
<path fill-rule="evenodd" clip-rule="evenodd" d="M16.8888 18.3184C16.7168 17.8854 16.4728 17.5074 16.2588 17.1844C16.1508 17.0224 16.0398 16.8574 15.9428 16.6874C15.5538 16.0114 15.6878 15.7374 16.3188 14.6804L16.4208 14.5074C16.9318 13.6464 16.9598 12.8204 16.9858 12.0924C16.9978 11.7344 17.0098 11.3974 17.0788 11.0804C17.2398 10.3484 18.7868 10.1534 19.7458 10.0384C19.9068 10.6674 19.9998 11.3224 19.9998 12.0004C19.9998 14.5694 18.7778 16.8534 16.8888 18.3184ZM11.9998 4.00037C12.6158 4.00037 13.2108 4.07637 13.7868 4.20837C13.6178 4.58037 13.3568 4.91937 13.0128 5.18837C12.7948 5.36037 12.5498 5.50337 12.3068 5.64837C11.6558 6.03637 10.9188 6.47637 10.4568 7.32237C9.84076 8.45237 9.84076 9.60637 9.84076 10.6244C9.84076 11.9794 9.79676 12.7804 8.89276 13.4874C7.52376 14.5604 5.42876 13.9614 4.13276 13.4164C4.05076 12.9554 3.99976 12.4834 3.99976 12.0004C3.99976 7.58937 7.58876 4.00037 11.9998 4.00037ZM11.9998 2.00037C6.48576 2.00037 1.99976 6.48637 1.99976 12.0004C1.99976 17.5134 6.48576 22.0004 11.9998 22.0004C17.5138 22.0004 21.9998 17.5134 21.9998 12.0004C21.9998 6.48637 17.5138 2.00037 11.9998 2.00037Z" fill="#343C44"/>
</svg>
