<svg width="24" height="24" viewBox="0 0 24 24" fill="none" xmlns="http://www.w3.org/2000/svg">
<path fill-rule="evenodd" clip-rule="evenodd" d="M16.9515 5.37306L21.7795 11.3731C22.0785 11.7441 22.0735 12.2741 21.7685 12.6411L16.7685 18.6411C16.5705 18.8781 16.2865 19.0001 15.9995 19.0001C15.7735 19.0001 15.5475 18.9241 15.3595 18.7691C14.9355 18.4151 14.8785 17.7841 15.2315 17.3591L19.7085 11.9891L15.3925 6.62706C15.0475 6.19606 15.1145 5.56706 15.5455 5.22106C15.9755 4.87306 16.6045 4.94306 16.9515 5.37306ZM7.23155 5.35946C7.58455 4.93546 8.21355 4.87846 8.64055 5.23146C9.06455 5.58546 9.12155 6.21546 8.76855 6.64046L4.29155 12.0105L8.60755 17.3735C8.95255 17.8035 8.88555 18.4325 8.45455 18.7795C8.27055 18.9275 8.04855 19.0005 7.82855 19.0005C7.53655 19.0005 7.24655 18.8725 7.04855 18.6275L2.22055 12.6275C1.92155 12.2555 1.92655 11.7255 2.23155 11.3595L7.23155 5.35946Z" fill="#343C44"/>
</svg>
