<svg width="20" height="14" viewBox="0 0 20 14" fill="none" xmlns="http://www.w3.org/2000/svg">
<path fill-rule="evenodd" clip-rule="evenodd" d="M19.7795 6.37306L14.9515 0.373058C14.6035 -0.0569425 13.9745 -0.126942 13.5455 0.221058C13.1145 0.567058 13.0475 1.19606 13.3925 1.62706L17.7085 6.98906L13.2315 12.3591C12.8785 12.7841 12.9355 13.4151 13.3595 13.7691C13.5475 13.9241 13.7735 14.0001 13.9995 14.0001C14.2865 14.0001 14.5705 13.8781 14.7685 13.6411L19.7685 7.64106C20.0735 7.27406 20.0785 6.74406 19.7795 6.37306ZM2.29216 7.01076L6.76916 1.64076C7.12216 1.21576 7.06416 0.584758 6.64116 0.231758C6.21516 -0.121242 5.58616 -0.0642423 5.23116 0.359758L0.23116 6.35976C-0.07284 6.72576 -0.07784 7.25576 0.22116 7.62676L5.04916 13.6268C5.24716 13.8718 5.53616 13.9998 5.82916 13.9998C6.04916 13.9998 6.27116 13.9278 6.45516 13.7798C6.88616 13.4328 6.95316 12.8038 6.60716 12.3728L2.29216 7.01076ZM12.306 6.38424C12.702 6.00024 13.337 6.01324 13.72 6.40924C14.103 6.80624 14.092 7.43924 13.695 7.82324L10.695 10.7202C10.501 10.9062 10.25 11.0002 9.99999 11.0002C9.74399 11.0002 9.48899 10.9022 9.29299 10.7072L6.29299 7.70724C5.90299 7.31624 5.90299 6.68324 6.29299 6.29324C6.68399 5.90224 7.31699 5.90224 7.70699 6.29324L8.99999 7.58524V3.00024C8.99999 2.44724 9.44799 2.00024 9.99999 2.00024C10.553 2.00024 11 2.44724 11 3.00024V7.64424L12.306 6.38424Z" fill="#343C44"/>
</svg>
