<svg width="20" height="18" viewBox="0 0 20 18" fill="none" xmlns="http://www.w3.org/2000/svg">
<path fill-rule="evenodd" clip-rule="evenodd" d="M17.4068 14.993L18.7068 16.293C19.0978 16.684 19.0978 17.316 18.7068 17.707C18.5118 17.902 18.2558 18 17.9998 18C17.7438 18 17.4878 17.902 17.2928 17.707L14.5858 15L13.9998 14.414L12.6548 13.069L12.5858 13L10.0835 10.4977C10.0558 10.4992 10.028 10.5 10 10.5C9.173 10.5 8.5 9.82701 8.5 9.00001C8.5 8.972 8.50077 8.94417 8.5023 8.91654L5.28276 5.69701L3.53176 3.94601L1.29276 1.70701C0.901762 1.31601 0.901762 0.684006 1.29276 0.293006C1.68376 -0.0979941 2.31576 -0.0979941 2.70676 0.293006L4.41976 2.00601L5.88476 3.47101L9.91608 7.50233C9.94386 7.50079 9.97184 7.50001 10 7.50001C10.827 7.50001 11.5 8.17301 11.5 9.00001C11.5 9.02816 11.4992 9.05614 11.4977 9.08392L15.4138 13L17.4068 14.993ZM6.59295 2.76425L9.38995 5.56125C9.58895 5.52625 9.79095 5.50025 9.99995 5.50025C11.93 5.50025 13.5 7.07025 13.5 9.00025C13.5 9.20925 13.474 9.41125 13.439 9.61025L16.121 12.2933L16.955 13.1273C18.477 11.7393 19.453 10.2203 19.868 9.49725C20.044 9.18925 20.044 8.81026 19.868 8.50225C19.23 7.39025 15.706 1.81625 9.72995 2.00325C8.54595 2.03425 7.47395 2.28925 6.50195 2.67425L6.59295 2.76425ZM11.948 13.7771L13.293 15.1211L13.498 15.3261C12.526 15.7111 11.455 15.9661 10.271 15.9961C10.189 15.9991 10.106 16.0001 10.025 16.0001C4.162 16.0001 0.762 10.5951 0.132 9.49711C-0.044 9.18911 -0.044 8.81011 0.132 8.50211C0.547 7.78011 1.523 6.26111 3.045 4.87311L4.576 6.40511L6.562 8.39011C6.526 8.58911 6.5 8.79111 6.5 9.00011C6.5 10.9301 8.07 12.5001 10 12.5001C10.209 12.5001 10.411 12.4741 10.61 12.4381L11.879 13.7071L11.948 13.7771Z" fill="#343C44"/>
</svg>
