<svg width="16" height="18" viewBox="0 0 16 18" fill="none" xmlns="http://www.w3.org/2000/svg">
<path fill-rule="evenodd" clip-rule="evenodd" d="M15.2675 1.67976C14.8055 1.34576 14.2075 1.25076 13.6685 1.42676C13.0925 1.61476 12.3425 1.71376 11.4995 1.71376C10.3755 1.71376 9.39951 1.33076 8.36551 0.925756C7.20351 0.470756 6.00051 -0.000244141 4.49951 -0.000244141C1.61351 -0.000244141 0.495512 0.951756 0.299512 1.14376C0.108512 1.33076 -0.000488281 1.58876 -0.000488281 1.85776V8.99976V12.1428V16.9998C-0.000488281 17.5528 0.447512 17.9998 0.999512 17.9998C1.55251 17.9998 1.99951 17.5528 1.99951 16.9998V12.7018C2.39451 12.5268 3.17251 12.2858 4.49951 12.2858C5.62351 12.2858 6.60051 12.6688 7.63451 13.0748C8.79651 13.5298 9.99851 13.9998 11.4995 13.9998C13.3085 13.9998 14.4225 13.6218 15.0405 13.3048C15.6325 12.9978 15.9995 12.4028 15.9995 11.7488V3.10576C15.9995 2.54576 15.7265 2.01276 15.2675 1.67976Z" fill="#343C44"/>
</svg>
