<svg width="20" height="20" viewBox="0 0 20 20" fill="none" xmlns="http://www.w3.org/2000/svg">
<path fill-rule="evenodd" clip-rule="evenodd" d="M7.27349 10.0548C6.97149 9.60876 6.70149 9.13876 6.47449 8.64476C7.71349 7.99476 7.71749 7.99176 7.85449 7.84976C8.08749 7.60676 8.18249 7.26176 8.10749 6.93376L6.73849 0.969756C6.66149 0.633756 6.41749 0.361755 6.09149 0.248755C5.85449 0.165756 5.60849 0.104756 5.36549 0.0657555C5.11649 0.0227555 4.86049 -0.000244141 4.59949 -0.000244141C2.06349 -0.000244141 0.000488281 2.06376 0.000488281 4.59976C0.000488281 8.16576 1.22949 11.4438 3.27149 14.0568L7.27349 10.0548ZM19.9354 14.6388C19.8954 14.3888 19.8324 14.1438 19.7504 13.9088C19.6384 13.5828 19.3664 13.3388 19.0304 13.2618L13.0664 11.8928C12.7374 11.8198 12.3934 11.9118 12.1504 12.1458L12.1498 12.1463C12.0073 12.2828 12.0034 12.2865 11.3544 13.5278C10.8604 13.3028 10.3894 13.0328 9.94236 12.7288L5.94336 16.7288C8.55636 18.7708 11.8334 19.9998 15.4004 19.9998C17.9364 19.9998 19.9994 17.9368 19.9994 15.4008C19.9994 15.1418 19.9774 14.8868 19.9354 14.6388ZM16.4825 2.26076C16.8305 1.91276 17.3925 1.91276 17.7395 2.26076C18.0875 2.60776 18.0875 3.16976 17.7395 3.51776L3.51749 17.7398C3.17049 18.0868 2.60749 18.0868 2.26049 17.7398C2.08749 17.5668 2.00049 17.3388 2.00049 17.1118C2.00049 16.8838 2.08749 16.6568 2.26049 16.4828L16.4825 2.26076Z" fill="#343C44"/>
</svg>
