<svg width="20" height="20" viewBox="0 0 20 20" fill="none" xmlns="http://www.w3.org/2000/svg">
<path fill-rule="evenodd" clip-rule="evenodd" d="M9 1C9 0.447 9.448 0 10 0C10.552 0 11 0.447 11 1V3C11 3.553 10.552 4 10 4C9.448 4 9 3.553 9 3V1ZM17 9H19C19.552 9 20 9.447 20 10C20 10.553 19.552 11 19 11H17C16.448 11 16 10.553 16 10C16 9.447 16.448 9 17 9ZM4 10C4 9.447 3.552 9 3 9H1C0.448 9 0 9.447 0 10C0 10.553 0.448 11 1 11H3C3.552 11 4 10.553 4 10ZM2.8069 3.05334C3.1919 2.65734 3.8239 2.64434 4.2209 3.02834L5.6599 4.41834C6.0569 4.80134 6.0679 5.43534 5.6839 5.83234C5.4879 6.03534 5.2269 6.13734 4.9649 6.13734C4.7149 6.13734 4.4649 6.04534 4.2699 5.85734L2.8309 4.46734C2.4339 4.08434 2.4229 3.45034 2.8069 3.05334ZM15.0352 6.1377C15.2852 6.1377 15.5352 6.0447 15.7302 5.8577L17.1692 4.4677C17.5662 4.0837 17.5772 3.4497 17.1932 3.0537C16.8102 2.6577 16.1782 2.6447 15.7792 3.0287L14.3402 4.4177C13.9432 4.8017 13.9322 5.4357 14.3162 5.8317C14.5122 6.0347 14.7732 6.1377 15.0352 6.1377ZM9 17C9 16.447 9.448 16 10 16C10.552 16 11 16.447 11 17V19C11 19.553 10.552 20 10 20C9.448 20 9 19.553 9 19V17ZM15.7302 14.1426C15.3332 13.7596 14.7002 13.7716 14.3162 14.1676C13.9322 14.5646 13.9432 15.1986 14.3402 15.5816L15.7792 16.9716C15.9742 17.1596 16.2242 17.2516 16.4742 17.2516C16.7362 17.2516 16.9972 17.1496 17.1932 16.9466C17.5772 16.5496 17.5662 15.9156 17.1692 15.5326L15.7302 14.1426ZM2.831 15.5326L4.27 14.1426C4.668 13.7596 5.301 13.7716 5.684 14.1676C6.068 14.5646 6.057 15.1986 5.66 15.5816L4.221 16.9716C4.026 17.1596 3.776 17.2516 3.526 17.2516C3.264 17.2516 3.003 17.1496 2.807 16.9466C2.423 16.5496 2.434 15.9156 2.831 15.5326Z" fill="#343C44"/>
</svg>
