<svg width="14" height="15" viewBox="0 0 14 15" fill="none" xmlns="http://www.w3.org/2000/svg">
<path fill-rule="evenodd" clip-rule="evenodd" d="M13.0001 0H8.00015C6.34615 0 5.00015 1.346 5.00015 3V11.919L1.62515 9.219C1.19415 8.875 0.56315 8.944 0.21915 9.375C-0.12585 9.807 -0.0558501 10.436 0.37515 10.781L5.37515 14.781C5.55815 14.927 5.77915 15 6.00015 15C6.22115 15 6.44215 14.927 6.62515 14.781L11.6251 10.781C12.0561 10.436 12.1262 9.807 11.7811 9.375C11.4372 8.944 10.8071 8.874 10.3751 9.219L7.00015 11.919V3C7.00015 2.449 7.44915 2 8.00015 2H13.0001C13.5521 2 14.0001 1.552 14.0001 1C14.0001 0.448 13.5521 0 13.0001 0Z" fill="#343C44"/>
</svg>
