<svg width="16" height="16" viewBox="0 0 16 16" fill="none" xmlns="http://www.w3.org/2000/svg">
<path fill-rule="evenodd" clip-rule="evenodd" d="M12.3759 0.667849C13.1529 -0.109151 14.4229 -0.247151 15.2619 0.460849C15.7549 0.877849 16.0079 1.46285 15.9999 2.05685C16.0069 2.59385 15.8019 3.12285 15.3979 3.52685L8.91291 10.0178C8.72991 10.2018 8.43191 10.2018 8.24791 10.0178L5.97491 7.74285C5.79091 7.55885 5.79091 7.25985 5.97491 7.07585L12.3759 0.667849ZM0.0540843 12.4138C0.0860843 10.5778 1.32908 8.91785 3.12408 8.54785C6.04708 7.94485 8.46208 10.7418 7.16708 13.7378C6.58308 15.0878 5.19608 15.9148 3.72708 15.9408H3.72508L0.479084 15.9998C0.213084 16.0048 -0.00491567 15.7868 8.43289e-05 15.5208L0.0540843 12.4138Z" fill="#343C44"/>
</svg>
